<mxfile host="Electron" modified="2023-06-22T16:16:54.895Z" agent="Mozilla/5.0 (Windows NT 10.0; Win64; x64) AppleWebKit/537.36 (KHTML, like Gecko) draw.io/21.2.8 Chrome/112.0.5615.165 Electron/24.2.0 Safari/537.36" etag="5I3pb3KAg-KkarfKCLUk" version="21.2.8" type="device">
  <diagram id="C5RBs43oDa-KdzZeNtuy" name="Page-1">
    <mxGraphModel dx="863" dy="587" grid="1" gridSize="10" guides="1" tooltips="1" connect="1" arrows="1" fold="1" page="1" pageScale="1" pageWidth="1169" pageHeight="827" math="0" shadow="0">
      <root>
        <mxCell id="WIyWlLk6GJQsqaUBKTNV-0" />
        <mxCell id="WIyWlLk6GJQsqaUBKTNV-1" parent="WIyWlLk6GJQsqaUBKTNV-0" />
        <mxCell id="sJ1ZpcTcMJj1yfrNuu4c-26" style="edgeStyle=none;curved=1;rounded=0;orthogonalLoop=1;jettySize=auto;html=1;entryX=1;entryY=0.5;entryDx=0;entryDy=0;fontSize=12;startSize=8;endSize=8;" parent="WIyWlLk6GJQsqaUBKTNV-1" source="WIyWlLk6GJQsqaUBKTNV-10" target="sJ1ZpcTcMJj1yfrNuu4c-25" edge="1">
          <mxGeometry relative="1" as="geometry" />
        </mxCell>
        <mxCell id="sJ1ZpcTcMJj1yfrNuu4c-32" style="edgeStyle=none;curved=1;rounded=0;orthogonalLoop=1;jettySize=auto;html=1;fontSize=12;startSize=8;endSize=8;entryX=0.376;entryY=0.949;entryDx=0;entryDy=0;entryPerimeter=0;exitX=1;exitY=0;exitDx=0;exitDy=0;" parent="WIyWlLk6GJQsqaUBKTNV-1" source="JzAl5olY9o-_MMsrC14U-8" target="sJ1ZpcTcMJj1yfrNuu4c-33" edge="1">
          <mxGeometry relative="1" as="geometry">
            <mxPoint x="290" y="380.0000000000001" as="targetPoint" />
            <mxPoint x="180" y="240" as="sourcePoint" />
            <Array as="points">
              <mxPoint x="150" y="320" />
            </Array>
          </mxGeometry>
        </mxCell>
        <mxCell id="sJ1ZpcTcMJj1yfrNuu4c-50" style="edgeStyle=none;curved=1;rounded=0;orthogonalLoop=1;jettySize=auto;html=1;fontSize=12;startSize=8;endSize=8;entryX=0.418;entryY=0.972;entryDx=0;entryDy=0;entryPerimeter=0;exitX=0.377;exitY=0.141;exitDx=0;exitDy=0;exitPerimeter=0;" parent="WIyWlLk6GJQsqaUBKTNV-1" source="JzAl5olY9o-_MMsrC14U-8" target="sJ1ZpcTcMJj1yfrNuu4c-51" edge="1">
          <mxGeometry relative="1" as="geometry">
            <mxPoint x="150" y="260" as="targetPoint" />
            <mxPoint x="150" y="267" as="sourcePoint" />
          </mxGeometry>
        </mxCell>
        <mxCell id="WIyWlLk6GJQsqaUBKTNV-10" value="&lt;font color=&quot;#ffffff&quot;&gt;tiene&lt;/font&gt;" style="rhombus;whiteSpace=wrap;html=1;shadow=0;fontFamily=Helvetica;fontSize=12;align=center;strokeWidth=1;spacing=6;spacingTop=-4;fillColor=#fa6800;fontColor=#000000;strokeColor=#C73500;" parent="WIyWlLk6GJQsqaUBKTNV-1" vertex="1">
          <mxGeometry x="110" y="426.5" width="50" height="33.5" as="geometry" />
        </mxCell>
        <mxCell id="sJ1ZpcTcMJj1yfrNuu4c-61" style="edgeStyle=none;curved=1;rounded=0;orthogonalLoop=1;jettySize=auto;html=1;fontSize=12;startSize=8;endSize=8;" parent="WIyWlLk6GJQsqaUBKTNV-1" source="WIyWlLk6GJQsqaUBKTNV-11" edge="1">
          <mxGeometry relative="1" as="geometry">
            <mxPoint x="170" y="572.0000000000001" as="targetPoint" />
          </mxGeometry>
        </mxCell>
        <mxCell id="sJ1ZpcTcMJj1yfrNuu4c-62" style="edgeStyle=none;curved=1;rounded=0;orthogonalLoop=1;jettySize=auto;html=1;fontSize=12;startSize=8;endSize=8;entryX=0.125;entryY=0.75;entryDx=0;entryDy=0;entryPerimeter=0;" parent="WIyWlLk6GJQsqaUBKTNV-1" target="sJ1ZpcTcMJj1yfrNuu4c-63" edge="1">
          <mxGeometry relative="1" as="geometry">
            <mxPoint x="300" y="270" as="targetPoint" />
            <mxPoint x="220" y="570" as="sourcePoint" />
          </mxGeometry>
        </mxCell>
        <mxCell id="sJ1ZpcTcMJj1yfrNuu4c-179" style="edgeStyle=none;curved=1;rounded=0;orthogonalLoop=1;jettySize=auto;html=1;entryX=0.5;entryY=1;entryDx=0;entryDy=0;fontSize=12;startSize=8;endSize=8;exitX=0.333;exitY=-0.05;exitDx=0;exitDy=0;exitPerimeter=0;" parent="WIyWlLk6GJQsqaUBKTNV-1" source="JzAl5olY9o-_MMsrC14U-4" target="WIyWlLk6GJQsqaUBKTNV-10" edge="1">
          <mxGeometry relative="1" as="geometry" />
        </mxCell>
        <mxCell id="WIyWlLk6GJQsqaUBKTNV-11" value="JUGADOR" style="rounded=1;whiteSpace=wrap;html=1;fontSize=12;glass=0;strokeWidth=1;shadow=0;fillColor=#1ba1e2;fontColor=#ffffff;strokeColor=#006EAF;" parent="WIyWlLk6GJQsqaUBKTNV-1" vertex="1">
          <mxGeometry x="110" y="572" width="120" height="40" as="geometry" />
        </mxCell>
        <mxCell id="sJ1ZpcTcMJj1yfrNuu4c-1" style="edgeStyle=none;curved=1;rounded=0;orthogonalLoop=1;jettySize=auto;html=1;entryX=0.128;entryY=1.016;entryDx=0;entryDy=0;entryPerimeter=0;fontSize=12;startSize=8;endSize=8;" parent="WIyWlLk6GJQsqaUBKTNV-1" source="sJ1ZpcTcMJj1yfrNuu4c-0" target="WIyWlLk6GJQsqaUBKTNV-11" edge="1">
          <mxGeometry relative="1" as="geometry" />
        </mxCell>
        <mxCell id="sJ1ZpcTcMJj1yfrNuu4c-4" style="edgeStyle=none;curved=1;rounded=0;orthogonalLoop=1;jettySize=auto;html=1;entryX=0.61;entryY=1.016;entryDx=0;entryDy=0;entryPerimeter=0;fontSize=12;startSize=8;endSize=8;" parent="WIyWlLk6GJQsqaUBKTNV-1" source="sJ1ZpcTcMJj1yfrNuu4c-2" target="WIyWlLk6GJQsqaUBKTNV-11" edge="1">
          <mxGeometry relative="1" as="geometry" />
        </mxCell>
        <mxCell id="sJ1ZpcTcMJj1yfrNuu4c-5" style="edgeStyle=none;curved=1;rounded=0;orthogonalLoop=1;jettySize=auto;html=1;fontSize=12;startSize=8;endSize=8;" parent="WIyWlLk6GJQsqaUBKTNV-1" source="sJ1ZpcTcMJj1yfrNuu4c-3" target="WIyWlLk6GJQsqaUBKTNV-11" edge="1">
          <mxGeometry relative="1" as="geometry" />
        </mxCell>
        <mxCell id="sJ1ZpcTcMJj1yfrNuu4c-7" style="edgeStyle=none;curved=1;rounded=0;orthogonalLoop=1;jettySize=auto;html=1;entryX=0.376;entryY=1.002;entryDx=0;entryDy=0;entryPerimeter=0;fontSize=12;startSize=8;endSize=8;" parent="WIyWlLk6GJQsqaUBKTNV-1" source="sJ1ZpcTcMJj1yfrNuu4c-6" target="WIyWlLk6GJQsqaUBKTNV-11" edge="1">
          <mxGeometry relative="1" as="geometry" />
        </mxCell>
        <mxCell id="sJ1ZpcTcMJj1yfrNuu4c-9" style="edgeStyle=none;curved=1;rounded=0;orthogonalLoop=1;jettySize=auto;html=1;entryX=0;entryY=0.75;entryDx=0;entryDy=0;fontSize=12;startSize=8;endSize=8;" parent="WIyWlLk6GJQsqaUBKTNV-1" source="sJ1ZpcTcMJj1yfrNuu4c-8" target="WIyWlLk6GJQsqaUBKTNV-11" edge="1">
          <mxGeometry relative="1" as="geometry" />
        </mxCell>
        <mxCell id="sJ1ZpcTcMJj1yfrNuu4c-8" value="numero_&lt;br&gt;camiseta" style="ellipse;whiteSpace=wrap;html=1;fontSize=16;fillColor=#6a00ff;fontColor=#ffffff;strokeColor=#3700CC;" parent="WIyWlLk6GJQsqaUBKTNV-1" vertex="1">
          <mxGeometry y="602" width="100" height="40" as="geometry" />
        </mxCell>
        <mxCell id="sJ1ZpcTcMJj1yfrNuu4c-11" style="edgeStyle=none;curved=1;rounded=0;orthogonalLoop=1;jettySize=auto;html=1;entryX=0.385;entryY=1.043;entryDx=0;entryDy=0;entryPerimeter=0;fontSize=12;startSize=8;endSize=8;" parent="WIyWlLk6GJQsqaUBKTNV-1" source="sJ1ZpcTcMJj1yfrNuu4c-10" target="WIyWlLk6GJQsqaUBKTNV-11" edge="1">
          <mxGeometry relative="1" as="geometry" />
        </mxCell>
        <mxCell id="sJ1ZpcTcMJj1yfrNuu4c-13" style="edgeStyle=none;curved=1;rounded=0;orthogonalLoop=1;jettySize=auto;html=1;entryX=0.33;entryY=1.029;entryDx=0;entryDy=0;entryPerimeter=0;fontSize=12;startSize=8;endSize=8;" parent="WIyWlLk6GJQsqaUBKTNV-1" source="sJ1ZpcTcMJj1yfrNuu4c-12" target="WIyWlLk6GJQsqaUBKTNV-11" edge="1">
          <mxGeometry relative="1" as="geometry" />
        </mxCell>
        <mxCell id="sJ1ZpcTcMJj1yfrNuu4c-12" value="pantalon_talle" style="ellipse;whiteSpace=wrap;html=1;fontSize=16;fillColor=#6a00ff;fontColor=#ffffff;strokeColor=#3700CC;" parent="WIyWlLk6GJQsqaUBKTNV-1" vertex="1">
          <mxGeometry x="70" y="742" width="120" height="25" as="geometry" />
        </mxCell>
        <mxCell id="sJ1ZpcTcMJj1yfrNuu4c-15" style="edgeStyle=none;curved=1;rounded=0;orthogonalLoop=1;jettySize=auto;html=1;entryX=0.75;entryY=1;entryDx=0;entryDy=0;fontSize=12;startSize=8;endSize=8;" parent="WIyWlLk6GJQsqaUBKTNV-1" source="sJ1ZpcTcMJj1yfrNuu4c-14" target="WIyWlLk6GJQsqaUBKTNV-11" edge="1">
          <mxGeometry relative="1" as="geometry" />
        </mxCell>
        <mxCell id="sJ1ZpcTcMJj1yfrNuu4c-14" value="partidos_jugados" style="ellipse;whiteSpace=wrap;html=1;fontSize=16;fillColor=#6a00ff;fontColor=#ffffff;strokeColor=#3700CC;" parent="WIyWlLk6GJQsqaUBKTNV-1" vertex="1">
          <mxGeometry x="50" y="797" width="140" height="30" as="geometry" />
        </mxCell>
        <mxCell id="sJ1ZpcTcMJj1yfrNuu4c-17" style="edgeStyle=none;curved=1;rounded=0;orthogonalLoop=1;jettySize=auto;html=1;entryX=0.25;entryY=0;entryDx=0;entryDy=0;fontSize=12;startSize=8;endSize=8;" parent="WIyWlLk6GJQsqaUBKTNV-1" source="sJ1ZpcTcMJj1yfrNuu4c-16" target="WIyWlLk6GJQsqaUBKTNV-11" edge="1">
          <mxGeometry relative="1" as="geometry" />
        </mxCell>
        <mxCell id="sJ1ZpcTcMJj1yfrNuu4c-19" style="edgeStyle=none;curved=1;rounded=0;orthogonalLoop=1;jettySize=auto;html=1;entryX=0.008;entryY=0.121;entryDx=0;entryDy=0;entryPerimeter=0;fontSize=12;startSize=8;endSize=8;" parent="WIyWlLk6GJQsqaUBKTNV-1" source="sJ1ZpcTcMJj1yfrNuu4c-18" target="WIyWlLk6GJQsqaUBKTNV-11" edge="1">
          <mxGeometry relative="1" as="geometry" />
        </mxCell>
        <mxCell id="sJ1ZpcTcMJj1yfrNuu4c-18" value="dni_j" style="ellipse;whiteSpace=wrap;html=1;fontSize=16;fillColor=#6a00ff;fontColor=#ffffff;strokeColor=#3700CC;" parent="WIyWlLk6GJQsqaUBKTNV-1" vertex="1">
          <mxGeometry y="511" width="60" height="30" as="geometry" />
        </mxCell>
        <mxCell id="sJ1ZpcTcMJj1yfrNuu4c-22" style="edgeStyle=none;curved=1;rounded=0;orthogonalLoop=1;jettySize=auto;html=1;entryX=0.25;entryY=1;entryDx=0;entryDy=0;fontSize=12;startSize=8;endSize=8;" parent="WIyWlLk6GJQsqaUBKTNV-1" source="sJ1ZpcTcMJj1yfrNuu4c-21" target="WIyWlLk6GJQsqaUBKTNV-11" edge="1">
          <mxGeometry relative="1" as="geometry" />
        </mxCell>
        <mxCell id="sJ1ZpcTcMJj1yfrNuu4c-24" style="edgeStyle=none;curved=1;rounded=0;orthogonalLoop=1;jettySize=auto;html=1;fontSize=12;startSize=8;endSize=8;exitX=0.5;exitY=0;exitDx=0;exitDy=0;" parent="WIyWlLk6GJQsqaUBKTNV-1" source="sJ1ZpcTcMJj1yfrNuu4c-23" target="WIyWlLk6GJQsqaUBKTNV-11" edge="1">
          <mxGeometry relative="1" as="geometry">
            <mxPoint x="41.482144960800724" y="752.6312822836908" as="sourcePoint" />
          </mxGeometry>
        </mxCell>
        <mxCell id="sJ1ZpcTcMJj1yfrNuu4c-23" value="id_comida" style="ellipse;whiteSpace=wrap;html=1;fontSize=16;fillColor=#6a00ff;fontColor=#ffffff;strokeColor=#3700CC;" parent="WIyWlLk6GJQsqaUBKTNV-1" vertex="1">
          <mxGeometry y="767" width="80" height="30" as="geometry" />
        </mxCell>
        <mxCell id="sJ1ZpcTcMJj1yfrNuu4c-6" value="categoria" style="ellipse;whiteSpace=wrap;html=1;fontSize=16;fillColor=#6a00ff;fontColor=#ffffff;strokeColor=#3700CC;" parent="WIyWlLk6GJQsqaUBKTNV-1" vertex="1">
          <mxGeometry x="20" y="682" width="100" height="25" as="geometry" />
        </mxCell>
        <mxCell id="sJ1ZpcTcMJj1yfrNuu4c-0" value="id_jugador" style="ellipse;whiteSpace=wrap;html=1;fontSize=16;fillColor=#6a00ff;fontColor=#ffffff;strokeColor=#3700CC;" parent="WIyWlLk6GJQsqaUBKTNV-1" vertex="1">
          <mxGeometry y="647" width="100" height="25" as="geometry" />
        </mxCell>
        <mxCell id="sJ1ZpcTcMJj1yfrNuu4c-21" value="id_club" style="ellipse;whiteSpace=wrap;html=1;fontSize=16;fillColor=#6a00ff;fontColor=#ffffff;strokeColor=#3700CC;" parent="WIyWlLk6GJQsqaUBKTNV-1" vertex="1">
          <mxGeometry y="712" width="80" height="30" as="geometry" />
        </mxCell>
        <mxCell id="sJ1ZpcTcMJj1yfrNuu4c-16" value="goles" style="ellipse;whiteSpace=wrap;html=1;fontSize=16;fillColor=#6a00ff;fontColor=#ffffff;strokeColor=#3700CC;" parent="WIyWlLk6GJQsqaUBKTNV-1" vertex="1">
          <mxGeometry x="70" y="516" width="60" height="30" as="geometry" />
        </mxCell>
        <mxCell id="sJ1ZpcTcMJj1yfrNuu4c-35" style="edgeStyle=none;curved=1;rounded=0;orthogonalLoop=1;jettySize=auto;html=1;entryX=0;entryY=0.5;entryDx=0;entryDy=0;fontSize=12;startSize=8;endSize=8;" parent="WIyWlLk6GJQsqaUBKTNV-1" source="sJ1ZpcTcMJj1yfrNuu4c-20" target="WIyWlLk6GJQsqaUBKTNV-11" edge="1">
          <mxGeometry relative="1" as="geometry" />
        </mxCell>
        <mxCell id="sJ1ZpcTcMJj1yfrNuu4c-20" value="posicion" style="ellipse;whiteSpace=wrap;html=1;fontSize=16;fillColor=#6a00ff;fontColor=#ffffff;strokeColor=#3700CC;" parent="WIyWlLk6GJQsqaUBKTNV-1" vertex="1">
          <mxGeometry x="10" y="557" width="80" height="30" as="geometry" />
        </mxCell>
        <mxCell id="sJ1ZpcTcMJj1yfrNuu4c-28" style="edgeStyle=none;curved=1;rounded=0;orthogonalLoop=1;jettySize=auto;html=1;fontSize=12;startSize=8;endSize=8;" parent="WIyWlLk6GJQsqaUBKTNV-1" source="sJ1ZpcTcMJj1yfrNuu4c-25" target="sJ1ZpcTcMJj1yfrNuu4c-27" edge="1">
          <mxGeometry relative="1" as="geometry" />
        </mxCell>
        <mxCell id="sJ1ZpcTcMJj1yfrNuu4c-25" value="CATEGORIA_&lt;br&gt;JUGADOR" style="rounded=1;whiteSpace=wrap;html=1;fontSize=12;glass=0;strokeWidth=1;shadow=0;fillColor=#1ba1e2;fontColor=#ffffff;strokeColor=#006EAF;" parent="WIyWlLk6GJQsqaUBKTNV-1" vertex="1">
          <mxGeometry y="350" width="120" height="40" as="geometry" />
        </mxCell>
        <mxCell id="sJ1ZpcTcMJj1yfrNuu4c-31" style="edgeStyle=none;curved=1;rounded=0;orthogonalLoop=1;jettySize=auto;html=1;entryX=0.665;entryY=0.999;entryDx=0;entryDy=0;entryPerimeter=0;fontSize=12;startSize=8;endSize=8;" parent="WIyWlLk6GJQsqaUBKTNV-1" source="sJ1ZpcTcMJj1yfrNuu4c-29" target="sJ1ZpcTcMJj1yfrNuu4c-25" edge="1">
          <mxGeometry relative="1" as="geometry" />
        </mxCell>
        <mxCell id="sJ1ZpcTcMJj1yfrNuu4c-29" value="categoria" style="ellipse;whiteSpace=wrap;html=1;fontSize=16;fillColor=#6a00ff;fontColor=#ffffff;strokeColor=#3700CC;" parent="WIyWlLk6GJQsqaUBKTNV-1" vertex="1">
          <mxGeometry x="10" y="454" width="100" height="25" as="geometry" />
        </mxCell>
        <mxCell id="sJ1ZpcTcMJj1yfrNuu4c-27" value="id_categoria" style="ellipse;whiteSpace=wrap;html=1;fontSize=16;fillColor=#6a00ff;fontColor=#ffffff;strokeColor=#3700CC;" parent="WIyWlLk6GJQsqaUBKTNV-1" vertex="1">
          <mxGeometry x="10" y="410" width="100" height="25" as="geometry" />
        </mxCell>
        <mxCell id="sJ1ZpcTcMJj1yfrNuu4c-33" value="CONDICIONES_&lt;br&gt;ALIMENTARIAS" style="rounded=1;whiteSpace=wrap;html=1;fontSize=12;glass=0;strokeWidth=1;shadow=0;fillColor=#1ba1e2;fontColor=#ffffff;strokeColor=#006EAF;" parent="WIyWlLk6GJQsqaUBKTNV-1" vertex="1">
          <mxGeometry x="150" y="57.5" width="120" height="40" as="geometry" />
        </mxCell>
        <mxCell id="sJ1ZpcTcMJj1yfrNuu4c-37" style="edgeStyle=none;curved=1;rounded=0;orthogonalLoop=1;jettySize=auto;html=1;entryX=0.75;entryY=0;entryDx=0;entryDy=0;fontSize=12;startSize=8;endSize=8;" parent="WIyWlLk6GJQsqaUBKTNV-1" source="sJ1ZpcTcMJj1yfrNuu4c-36" target="sJ1ZpcTcMJj1yfrNuu4c-33" edge="1">
          <mxGeometry relative="1" as="geometry" />
        </mxCell>
        <mxCell id="sJ1ZpcTcMJj1yfrNuu4c-36" value="id_comida" style="ellipse;whiteSpace=wrap;html=1;fontSize=16;fillColor=#6a00ff;fontColor=#ffffff;strokeColor=#3700CC;" parent="WIyWlLk6GJQsqaUBKTNV-1" vertex="1">
          <mxGeometry x="160" y="5" width="80" height="30" as="geometry" />
        </mxCell>
        <mxCell id="sJ1ZpcTcMJj1yfrNuu4c-39" style="edgeStyle=none;curved=1;rounded=0;orthogonalLoop=1;jettySize=auto;html=1;entryX=0.5;entryY=0;entryDx=0;entryDy=0;fontSize=12;startSize=8;endSize=8;" parent="WIyWlLk6GJQsqaUBKTNV-1" source="sJ1ZpcTcMJj1yfrNuu4c-38" target="sJ1ZpcTcMJj1yfrNuu4c-33" edge="1">
          <mxGeometry relative="1" as="geometry" />
        </mxCell>
        <mxCell id="sJ1ZpcTcMJj1yfrNuu4c-41" style="edgeStyle=none;curved=1;rounded=0;orthogonalLoop=1;jettySize=auto;html=1;entryX=0.334;entryY=0.001;entryDx=0;entryDy=0;entryPerimeter=0;fontSize=12;startSize=8;endSize=8;" parent="WIyWlLk6GJQsqaUBKTNV-1" source="sJ1ZpcTcMJj1yfrNuu4c-40" target="sJ1ZpcTcMJj1yfrNuu4c-33" edge="1">
          <mxGeometry relative="1" as="geometry" />
        </mxCell>
        <mxCell id="sJ1ZpcTcMJj1yfrNuu4c-40" value="nombre_&lt;br&gt;condicion" style="ellipse;whiteSpace=wrap;html=1;fontSize=16;fillColor=#6a00ff;fontColor=#ffffff;strokeColor=#3700CC;" parent="WIyWlLk6GJQsqaUBKTNV-1" vertex="1">
          <mxGeometry x="35" y="49" width="90" height="40" as="geometry" />
        </mxCell>
        <mxCell id="sJ1ZpcTcMJj1yfrNuu4c-51" value="POSICION" style="rounded=1;whiteSpace=wrap;html=1;fontSize=12;glass=0;strokeWidth=1;shadow=0;fillColor=#1ba1e2;fontColor=#ffffff;strokeColor=#006EAF;" parent="WIyWlLk6GJQsqaUBKTNV-1" vertex="1">
          <mxGeometry x="11" y="247" width="120" height="40" as="geometry" />
        </mxCell>
        <mxCell id="sJ1ZpcTcMJj1yfrNuu4c-52" style="edgeStyle=none;curved=1;rounded=0;orthogonalLoop=1;jettySize=auto;html=1;exitX=0.5;exitY=1;exitDx=0;exitDy=0;fontSize=12;startSize=8;endSize=8;" parent="WIyWlLk6GJQsqaUBKTNV-1" source="sJ1ZpcTcMJj1yfrNuu4c-29" target="sJ1ZpcTcMJj1yfrNuu4c-29" edge="1">
          <mxGeometry relative="1" as="geometry" />
        </mxCell>
        <mxCell id="sJ1ZpcTcMJj1yfrNuu4c-53" style="edgeStyle=none;curved=1;rounded=0;orthogonalLoop=1;jettySize=auto;html=1;exitX=0.5;exitY=1;exitDx=0;exitDy=0;fontSize=12;startSize=8;endSize=8;" parent="WIyWlLk6GJQsqaUBKTNV-1" edge="1">
          <mxGeometry relative="1" as="geometry">
            <mxPoint x="80" y="225" as="sourcePoint" />
            <mxPoint x="80" y="225" as="targetPoint" />
          </mxGeometry>
        </mxCell>
        <mxCell id="sJ1ZpcTcMJj1yfrNuu4c-58" style="edgeStyle=none;curved=1;rounded=0;orthogonalLoop=1;jettySize=auto;html=1;entryX=0.75;entryY=0;entryDx=0;entryDy=0;fontSize=12;startSize=8;endSize=8;" parent="WIyWlLk6GJQsqaUBKTNV-1" source="sJ1ZpcTcMJj1yfrNuu4c-56" target="sJ1ZpcTcMJj1yfrNuu4c-51" edge="1">
          <mxGeometry relative="1" as="geometry" />
        </mxCell>
        <mxCell id="sJ1ZpcTcMJj1yfrNuu4c-60" style="edgeStyle=none;curved=1;rounded=0;orthogonalLoop=1;jettySize=auto;html=1;entryX=0.25;entryY=0;entryDx=0;entryDy=0;fontSize=12;startSize=8;endSize=8;" parent="WIyWlLk6GJQsqaUBKTNV-1" source="sJ1ZpcTcMJj1yfrNuu4c-54" target="sJ1ZpcTcMJj1yfrNuu4c-51" edge="1">
          <mxGeometry relative="1" as="geometry" />
        </mxCell>
        <mxCell id="sJ1ZpcTcMJj1yfrNuu4c-59" value="nombre_posicion" style="ellipse;whiteSpace=wrap;html=1;fontSize=16;fillColor=#6a00ff;fontColor=#ffffff;strokeColor=#3700CC;" parent="WIyWlLk6GJQsqaUBKTNV-1" vertex="1">
          <mxGeometry y="152.5" width="140" height="25" as="geometry" />
        </mxCell>
        <mxCell id="sJ1ZpcTcMJj1yfrNuu4c-56" value="nombre_pos_corto" style="ellipse;whiteSpace=wrap;html=1;fontSize=16;fillColor=#6a00ff;fontColor=#ffffff;strokeColor=#3700CC;" parent="WIyWlLk6GJQsqaUBKTNV-1" vertex="1">
          <mxGeometry x="2.5" y="122" width="155" height="25" as="geometry" />
        </mxCell>
        <mxCell id="sJ1ZpcTcMJj1yfrNuu4c-71" style="edgeStyle=none;curved=1;rounded=0;orthogonalLoop=1;jettySize=auto;html=1;entryX=0.081;entryY=-0.1;entryDx=0;entryDy=0;entryPerimeter=0;fontSize=12;startSize=8;endSize=8;" parent="WIyWlLk6GJQsqaUBKTNV-1" source="sJ1ZpcTcMJj1yfrNuu4c-63" target="sJ1ZpcTcMJj1yfrNuu4c-64" edge="1">
          <mxGeometry relative="1" as="geometry" />
        </mxCell>
        <mxCell id="sJ1ZpcTcMJj1yfrNuu4c-73" style="edgeStyle=none;curved=1;rounded=0;orthogonalLoop=1;jettySize=auto;html=1;fontSize=12;startSize=8;endSize=8;" parent="WIyWlLk6GJQsqaUBKTNV-1" source="sJ1ZpcTcMJj1yfrNuu4c-63" target="sJ1ZpcTcMJj1yfrNuu4c-72" edge="1">
          <mxGeometry relative="1" as="geometry" />
        </mxCell>
        <mxCell id="sJ1ZpcTcMJj1yfrNuu4c-63" value="&lt;font color=&quot;#ffffff&quot;&gt;pertenece&lt;/font&gt;" style="rhombus;whiteSpace=wrap;html=1;shadow=0;fontFamily=Helvetica;fontSize=12;align=center;strokeWidth=1;spacing=6;spacingTop=-4;fillColor=#fa6800;fontColor=#000000;strokeColor=#C73500;" parent="WIyWlLk6GJQsqaUBKTNV-1" vertex="1">
          <mxGeometry x="255" y="185" width="80" height="40" as="geometry" />
        </mxCell>
        <mxCell id="sJ1ZpcTcMJj1yfrNuu4c-208" style="edgeStyle=none;curved=1;rounded=0;orthogonalLoop=1;jettySize=auto;html=1;entryX=0;entryY=0.5;entryDx=0;entryDy=0;fontSize=12;startSize=8;endSize=8;" parent="WIyWlLk6GJQsqaUBKTNV-1" source="JzAl5olY9o-_MMsrC14U-20" edge="1" target="sJ1ZpcTcMJj1yfrNuu4c-207">
          <mxGeometry relative="1" as="geometry">
            <mxPoint x="430.9999999999998" y="278.5" as="targetPoint" />
          </mxGeometry>
        </mxCell>
        <mxCell id="sJ1ZpcTcMJj1yfrNuu4c-64" value="CLUB" style="rounded=1;whiteSpace=wrap;html=1;fontSize=12;glass=0;strokeWidth=1;shadow=0;fillColor=#1ba1e2;fontColor=#ffffff;strokeColor=#006EAF;" parent="WIyWlLk6GJQsqaUBKTNV-1" vertex="1">
          <mxGeometry x="282" y="265.25" width="120" height="40" as="geometry" />
        </mxCell>
        <mxCell id="sJ1ZpcTcMJj1yfrNuu4c-66" style="edgeStyle=none;curved=1;rounded=0;orthogonalLoop=1;jettySize=auto;html=1;entryX=1;entryY=0.75;entryDx=0;entryDy=0;fontSize=12;startSize=8;endSize=8;" parent="WIyWlLk6GJQsqaUBKTNV-1" target="sJ1ZpcTcMJj1yfrNuu4c-64" edge="1">
          <mxGeometry relative="1" as="geometry">
            <mxPoint x="408.36500391890604" y="345.2625359233066" as="sourcePoint" />
          </mxGeometry>
        </mxCell>
        <mxCell id="sJ1ZpcTcMJj1yfrNuu4c-68" style="edgeStyle=none;curved=1;rounded=0;orthogonalLoop=1;jettySize=auto;html=1;entryX=0.5;entryY=1;entryDx=0;entryDy=0;fontSize=12;startSize=8;endSize=8;" parent="WIyWlLk6GJQsqaUBKTNV-1" source="sJ1ZpcTcMJj1yfrNuu4c-67" target="sJ1ZpcTcMJj1yfrNuu4c-64" edge="1">
          <mxGeometry relative="1" as="geometry" />
        </mxCell>
        <mxCell id="sJ1ZpcTcMJj1yfrNuu4c-70" style="edgeStyle=none;curved=1;rounded=0;orthogonalLoop=1;jettySize=auto;html=1;entryX=0.814;entryY=1.033;entryDx=0;entryDy=0;entryPerimeter=0;fontSize=12;startSize=8;endSize=8;" parent="WIyWlLk6GJQsqaUBKTNV-1" source="sJ1ZpcTcMJj1yfrNuu4c-69" target="sJ1ZpcTcMJj1yfrNuu4c-64" edge="1">
          <mxGeometry relative="1" as="geometry" />
        </mxCell>
        <mxCell id="sJ1ZpcTcMJj1yfrNuu4c-69" value="autoridad_club" style="ellipse;whiteSpace=wrap;html=1;fontSize=16;fillColor=#6a00ff;fontColor=#ffffff;strokeColor=#3700CC;" parent="WIyWlLk6GJQsqaUBKTNV-1" vertex="1">
          <mxGeometry x="265" y="381.5" width="115" height="32.5" as="geometry" />
        </mxCell>
        <mxCell id="sJ1ZpcTcMJj1yfrNuu4c-99" style="edgeStyle=none;curved=1;rounded=0;orthogonalLoop=1;jettySize=auto;html=1;fontSize=12;startSize=8;endSize=8;entryX=0.5;entryY=0;entryDx=0;entryDy=0;" parent="WIyWlLk6GJQsqaUBKTNV-1" source="sJ1ZpcTcMJj1yfrNuu4c-72" target="sJ1ZpcTcMJj1yfrNuu4c-100" edge="1">
          <mxGeometry relative="1" as="geometry">
            <mxPoint x="620" y="270" as="targetPoint" />
            <Array as="points">
              <mxPoint x="580" y="340" />
            </Array>
          </mxGeometry>
        </mxCell>
        <mxCell id="sJ1ZpcTcMJj1yfrNuu4c-72" value="EQUIPO" style="rounded=1;whiteSpace=wrap;html=1;fontSize=12;glass=0;strokeWidth=1;shadow=0;fillColor=#1ba1e2;fontColor=#ffffff;strokeColor=#006EAF;" parent="WIyWlLk6GJQsqaUBKTNV-1" vertex="1">
          <mxGeometry x="433" y="97" width="120" height="40" as="geometry" />
        </mxCell>
        <mxCell id="sJ1ZpcTcMJj1yfrNuu4c-75" style="edgeStyle=none;curved=1;rounded=0;orthogonalLoop=1;jettySize=auto;html=1;entryX=0.25;entryY=0;entryDx=0;entryDy=0;fontSize=12;startSize=8;endSize=8;" parent="WIyWlLk6GJQsqaUBKTNV-1" source="sJ1ZpcTcMJj1yfrNuu4c-74" target="sJ1ZpcTcMJj1yfrNuu4c-72" edge="1">
          <mxGeometry relative="1" as="geometry" />
        </mxCell>
        <mxCell id="sJ1ZpcTcMJj1yfrNuu4c-74" value="id_equipo" style="ellipse;whiteSpace=wrap;html=1;fontSize=16;fillColor=#6a00ff;fontColor=#ffffff;strokeColor=#3700CC;" parent="WIyWlLk6GJQsqaUBKTNV-1" vertex="1">
          <mxGeometry x="366" y="7.5" width="100" height="25" as="geometry" />
        </mxCell>
        <mxCell id="sJ1ZpcTcMJj1yfrNuu4c-77" style="edgeStyle=none;curved=1;rounded=0;orthogonalLoop=1;jettySize=auto;html=1;fontSize=12;startSize=8;endSize=8;" parent="WIyWlLk6GJQsqaUBKTNV-1" source="sJ1ZpcTcMJj1yfrNuu4c-76" target="sJ1ZpcTcMJj1yfrNuu4c-72" edge="1">
          <mxGeometry relative="1" as="geometry" />
        </mxCell>
        <mxCell id="sJ1ZpcTcMJj1yfrNuu4c-76" value="categoria" style="ellipse;whiteSpace=wrap;html=1;fontSize=16;fillColor=#6a00ff;fontColor=#ffffff;strokeColor=#3700CC;" parent="WIyWlLk6GJQsqaUBKTNV-1" vertex="1">
          <mxGeometry x="472" y="10" width="100" height="25" as="geometry" />
        </mxCell>
        <mxCell id="sJ1ZpcTcMJj1yfrNuu4c-79" style="edgeStyle=none;curved=1;rounded=0;orthogonalLoop=1;jettySize=auto;html=1;entryX=0.692;entryY=0.042;entryDx=0;entryDy=0;entryPerimeter=0;fontSize=12;startSize=8;endSize=8;" parent="WIyWlLk6GJQsqaUBKTNV-1" source="sJ1ZpcTcMJj1yfrNuu4c-78" target="sJ1ZpcTcMJj1yfrNuu4c-72" edge="1">
          <mxGeometry relative="1" as="geometry" />
        </mxCell>
        <mxCell id="sJ1ZpcTcMJj1yfrNuu4c-81" style="edgeStyle=none;curved=1;rounded=0;orthogonalLoop=1;jettySize=auto;html=1;entryX=1;entryY=0;entryDx=0;entryDy=0;fontSize=12;startSize=8;endSize=8;" parent="WIyWlLk6GJQsqaUBKTNV-1" source="sJ1ZpcTcMJj1yfrNuu4c-80" target="sJ1ZpcTcMJj1yfrNuu4c-72" edge="1">
          <mxGeometry relative="1" as="geometry" />
        </mxCell>
        <mxCell id="sJ1ZpcTcMJj1yfrNuu4c-80" value="apellido_dt" style="ellipse;whiteSpace=wrap;html=1;fontSize=16;fillColor=#6a00ff;fontColor=#ffffff;strokeColor=#3700CC;" parent="WIyWlLk6GJQsqaUBKTNV-1" vertex="1">
          <mxGeometry x="580" y="15" width="100" height="25" as="geometry" />
        </mxCell>
        <mxCell id="sJ1ZpcTcMJj1yfrNuu4c-83" style="edgeStyle=none;curved=1;rounded=0;orthogonalLoop=1;jettySize=auto;html=1;entryX=0.058;entryY=0.067;entryDx=0;entryDy=0;fontSize=12;startSize=8;endSize=8;entryPerimeter=0;" parent="WIyWlLk6GJQsqaUBKTNV-1" source="sJ1ZpcTcMJj1yfrNuu4c-82" target="sJ1ZpcTcMJj1yfrNuu4c-72" edge="1">
          <mxGeometry relative="1" as="geometry" />
        </mxCell>
        <mxCell id="sJ1ZpcTcMJj1yfrNuu4c-85" style="edgeStyle=none;curved=1;rounded=0;orthogonalLoop=1;jettySize=auto;html=1;entryX=0.5;entryY=1;entryDx=0;entryDy=0;fontSize=12;startSize=8;endSize=8;" parent="WIyWlLk6GJQsqaUBKTNV-1" source="sJ1ZpcTcMJj1yfrNuu4c-84" target="sJ1ZpcTcMJj1yfrNuu4c-72" edge="1">
          <mxGeometry relative="1" as="geometry" />
        </mxCell>
        <mxCell id="sJ1ZpcTcMJj1yfrNuu4c-87" style="edgeStyle=none;curved=1;rounded=0;orthogonalLoop=1;jettySize=auto;html=1;entryX=0;entryY=0.5;entryDx=0;entryDy=0;fontSize=12;startSize=8;endSize=8;" parent="WIyWlLk6GJQsqaUBKTNV-1" source="sJ1ZpcTcMJj1yfrNuu4c-86" target="sJ1ZpcTcMJj1yfrNuu4c-72" edge="1">
          <mxGeometry relative="1" as="geometry" />
        </mxCell>
        <mxCell id="sJ1ZpcTcMJj1yfrNuu4c-86" value="partidos_jugados" style="ellipse;whiteSpace=wrap;html=1;fontSize=16;fillColor=#6a00ff;fontColor=#ffffff;strokeColor=#3700CC;" parent="WIyWlLk6GJQsqaUBKTNV-1" vertex="1">
          <mxGeometry x="300" y="89" width="120" height="30" as="geometry" />
        </mxCell>
        <mxCell id="sJ1ZpcTcMJj1yfrNuu4c-89" style="edgeStyle=none;curved=1;rounded=0;orthogonalLoop=1;jettySize=auto;html=1;entryX=0.831;entryY=0.975;entryDx=0;entryDy=0;entryPerimeter=0;fontSize=12;startSize=8;endSize=8;" parent="WIyWlLk6GJQsqaUBKTNV-1" source="sJ1ZpcTcMJj1yfrNuu4c-88" target="sJ1ZpcTcMJj1yfrNuu4c-72" edge="1">
          <mxGeometry relative="1" as="geometry" />
        </mxCell>
        <mxCell id="sJ1ZpcTcMJj1yfrNuu4c-88" value="partidos_a_jugar" style="ellipse;whiteSpace=wrap;html=1;fontSize=16;fillColor=#6a00ff;fontColor=#ffffff;strokeColor=#3700CC;" parent="WIyWlLk6GJQsqaUBKTNV-1" vertex="1">
          <mxGeometry x="414" y="188" width="140" height="30" as="geometry" />
        </mxCell>
        <mxCell id="sJ1ZpcTcMJj1yfrNuu4c-91" style="edgeStyle=none;curved=1;rounded=0;orthogonalLoop=1;jettySize=auto;html=1;fontSize=12;startSize=8;endSize=8;" parent="WIyWlLk6GJQsqaUBKTNV-1" source="sJ1ZpcTcMJj1yfrNuu4c-90" edge="1">
          <mxGeometry relative="1" as="geometry">
            <mxPoint x="180" y="612" as="targetPoint" />
          </mxGeometry>
        </mxCell>
        <mxCell id="sJ1ZpcTcMJj1yfrNuu4c-90" value="sexo" style="ellipse;whiteSpace=wrap;html=1;fontSize=16;fillColor=#6a00ff;fontColor=#ffffff;strokeColor=#3700CC;" parent="WIyWlLk6GJQsqaUBKTNV-1" vertex="1">
          <mxGeometry x="180" y="772" width="60" height="30" as="geometry" />
        </mxCell>
        <mxCell id="sJ1ZpcTcMJj1yfrNuu4c-10" value="camiseta_talle" style="ellipse;whiteSpace=wrap;html=1;fontSize=16;fillColor=#6a00ff;fontColor=#ffffff;strokeColor=#3700CC;" parent="WIyWlLk6GJQsqaUBKTNV-1" vertex="1">
          <mxGeometry x="110" y="707" width="120" height="25" as="geometry" />
        </mxCell>
        <mxCell id="sJ1ZpcTcMJj1yfrNuu4c-3" value="apellido_j" style="ellipse;whiteSpace=wrap;html=1;fontSize=16;fillColor=#6a00ff;fontColor=#ffffff;strokeColor=#3700CC;" parent="WIyWlLk6GJQsqaUBKTNV-1" vertex="1">
          <mxGeometry x="130" y="672" width="100" height="25" as="geometry" />
        </mxCell>
        <mxCell id="sJ1ZpcTcMJj1yfrNuu4c-2" value="nombre_j" style="ellipse;whiteSpace=wrap;html=1;fontSize=16;fillColor=#6a00ff;fontColor=#ffffff;strokeColor=#3700CC;" parent="WIyWlLk6GJQsqaUBKTNV-1" vertex="1">
          <mxGeometry x="150" y="632" width="100" height="25" as="geometry" />
        </mxCell>
        <mxCell id="sJ1ZpcTcMJj1yfrNuu4c-93" style="edgeStyle=none;curved=1;rounded=0;orthogonalLoop=1;jettySize=auto;html=1;entryX=0.131;entryY=0.025;entryDx=0;entryDy=0;entryPerimeter=0;fontSize=12;startSize=8;endSize=8;" parent="WIyWlLk6GJQsqaUBKTNV-1" source="sJ1ZpcTcMJj1yfrNuu4c-92" target="sJ1ZpcTcMJj1yfrNuu4c-72" edge="1">
          <mxGeometry relative="1" as="geometry" />
        </mxCell>
        <mxCell id="sJ1ZpcTcMJj1yfrNuu4c-92" value="sexo" style="ellipse;whiteSpace=wrap;html=1;fontSize=16;fillColor=#6a00ff;fontColor=#ffffff;strokeColor=#3700CC;" parent="WIyWlLk6GJQsqaUBKTNV-1" vertex="1">
          <mxGeometry x="297" y="9" width="60" height="30" as="geometry" />
        </mxCell>
        <mxCell id="sJ1ZpcTcMJj1yfrNuu4c-95" style="edgeStyle=none;curved=1;rounded=0;orthogonalLoop=1;jettySize=auto;html=1;entryX=1;entryY=0.5;entryDx=0;entryDy=0;fontSize=12;startSize=8;endSize=8;" parent="WIyWlLk6GJQsqaUBKTNV-1" source="sJ1ZpcTcMJj1yfrNuu4c-94" target="sJ1ZpcTcMJj1yfrNuu4c-72" edge="1">
          <mxGeometry relative="1" as="geometry" />
        </mxCell>
        <mxCell id="sJ1ZpcTcMJj1yfrNuu4c-94" value="id_club" style="ellipse;whiteSpace=wrap;html=1;fontSize=16;fillColor=#6a00ff;fontColor=#ffffff;strokeColor=#3700CC;" parent="WIyWlLk6GJQsqaUBKTNV-1" vertex="1">
          <mxGeometry x="567" y="111" width="80" height="30" as="geometry" />
        </mxCell>
        <mxCell id="sJ1ZpcTcMJj1yfrNuu4c-96" style="edgeStyle=none;curved=1;rounded=0;orthogonalLoop=1;jettySize=auto;html=1;exitX=0.5;exitY=1;exitDx=0;exitDy=0;fontSize=12;startSize=8;endSize=8;" parent="WIyWlLk6GJQsqaUBKTNV-1" source="sJ1ZpcTcMJj1yfrNuu4c-76" target="sJ1ZpcTcMJj1yfrNuu4c-76" edge="1">
          <mxGeometry relative="1" as="geometry" />
        </mxCell>
        <mxCell id="sJ1ZpcTcMJj1yfrNuu4c-38" value="id_jugador" style="ellipse;whiteSpace=wrap;html=1;fontSize=16;fillColor=#6a00ff;fontColor=#ffffff;strokeColor=#3700CC;" parent="WIyWlLk6GJQsqaUBKTNV-1" vertex="1">
          <mxGeometry x="60" y="10" width="80" height="30" as="geometry" />
        </mxCell>
        <mxCell id="sJ1ZpcTcMJj1yfrNuu4c-103" style="edgeStyle=none;curved=1;rounded=0;orthogonalLoop=1;jettySize=auto;html=1;entryX=0.25;entryY=0;entryDx=0;entryDy=0;fontSize=12;startSize=8;endSize=8;" parent="WIyWlLk6GJQsqaUBKTNV-1" source="sJ1ZpcTcMJj1yfrNuu4c-100" target="sJ1ZpcTcMJj1yfrNuu4c-101" edge="1">
          <mxGeometry relative="1" as="geometry" />
        </mxCell>
        <mxCell id="sJ1ZpcTcMJj1yfrNuu4c-100" value="&lt;font color=&quot;#ffffff&quot;&gt;juega&lt;/font&gt;" style="rhombus;whiteSpace=wrap;html=1;shadow=0;fontFamily=Helvetica;fontSize=12;align=center;strokeWidth=1;spacing=6;spacingTop=-4;fillColor=#fa6800;fontColor=#000000;strokeColor=#C73500;" parent="WIyWlLk6GJQsqaUBKTNV-1" vertex="1">
          <mxGeometry x="448" y="414" width="80" height="40" as="geometry" />
        </mxCell>
        <mxCell id="sJ1ZpcTcMJj1yfrNuu4c-170" style="edgeStyle=none;curved=1;rounded=0;orthogonalLoop=1;jettySize=auto;html=1;entryX=0;entryY=0.5;entryDx=0;entryDy=0;fontSize=12;startSize=8;endSize=8;" parent="WIyWlLk6GJQsqaUBKTNV-1" source="sJ1ZpcTcMJj1yfrNuu4c-101" target="sJ1ZpcTcMJj1yfrNuu4c-151" edge="1">
          <mxGeometry relative="1" as="geometry">
            <Array as="points">
              <mxPoint x="590" y="270" />
            </Array>
          </mxGeometry>
        </mxCell>
        <mxCell id="sJ1ZpcTcMJj1yfrNuu4c-101" value="PARTIDO" style="rounded=1;whiteSpace=wrap;html=1;fontSize=12;glass=0;strokeWidth=1;shadow=0;fillColor=#1ba1e2;fontColor=#ffffff;strokeColor=#006EAF;" parent="WIyWlLk6GJQsqaUBKTNV-1" vertex="1">
          <mxGeometry x="408" y="637" width="120" height="40" as="geometry" />
        </mxCell>
        <mxCell id="sJ1ZpcTcMJj1yfrNuu4c-105" style="edgeStyle=none;curved=1;rounded=0;orthogonalLoop=1;jettySize=auto;html=1;entryX=0;entryY=0.75;entryDx=0;entryDy=0;fontSize=12;startSize=8;endSize=8;" parent="WIyWlLk6GJQsqaUBKTNV-1" source="sJ1ZpcTcMJj1yfrNuu4c-104" target="sJ1ZpcTcMJj1yfrNuu4c-72" edge="1">
          <mxGeometry relative="1" as="geometry" />
        </mxCell>
        <mxCell id="sJ1ZpcTcMJj1yfrNuu4c-104" value="id_partido" style="ellipse;whiteSpace=wrap;html=1;fontSize=16;fillColor=#6a00ff;fontColor=#ffffff;strokeColor=#3700CC;" parent="WIyWlLk6GJQsqaUBKTNV-1" vertex="1">
          <mxGeometry x="323" y="127.5" width="80" height="30" as="geometry" />
        </mxCell>
        <mxCell id="sJ1ZpcTcMJj1yfrNuu4c-109" style="edgeStyle=none;curved=1;rounded=0;orthogonalLoop=1;jettySize=auto;html=1;fontSize=12;startSize=8;endSize=8;entryX=0.984;entryY=0.661;entryDx=0;entryDy=0;entryPerimeter=0;" parent="WIyWlLk6GJQsqaUBKTNV-1" source="sJ1ZpcTcMJj1yfrNuu4c-106" target="sJ1ZpcTcMJj1yfrNuu4c-101" edge="1">
          <mxGeometry relative="1" as="geometry">
            <mxPoint x="552" y="622" as="targetPoint" />
          </mxGeometry>
        </mxCell>
        <mxCell id="sJ1ZpcTcMJj1yfrNuu4c-106" value="id_partido" style="ellipse;whiteSpace=wrap;html=1;fontSize=16;fillColor=#6a00ff;fontColor=#ffffff;strokeColor=#3700CC;" parent="WIyWlLk6GJQsqaUBKTNV-1" vertex="1">
          <mxGeometry x="545" y="737" width="80" height="30" as="geometry" />
        </mxCell>
        <mxCell id="sJ1ZpcTcMJj1yfrNuu4c-110" style="edgeStyle=none;curved=1;rounded=0;orthogonalLoop=1;jettySize=auto;html=1;entryX=0.92;entryY=1.013;entryDx=0;entryDy=0;entryPerimeter=0;fontSize=12;startSize=8;endSize=8;" parent="WIyWlLk6GJQsqaUBKTNV-1" source="sJ1ZpcTcMJj1yfrNuu4c-108" target="sJ1ZpcTcMJj1yfrNuu4c-101" edge="1">
          <mxGeometry relative="1" as="geometry" />
        </mxCell>
        <mxCell id="sJ1ZpcTcMJj1yfrNuu4c-108" value="id_arbitro" style="ellipse;whiteSpace=wrap;html=1;fontSize=16;fillColor=#6a00ff;fontColor=#ffffff;strokeColor=#3700CC;" parent="WIyWlLk6GJQsqaUBKTNV-1" vertex="1">
          <mxGeometry x="502" y="792" width="80" height="25" as="geometry" />
        </mxCell>
        <mxCell id="sJ1ZpcTcMJj1yfrNuu4c-112" style="edgeStyle=none;curved=1;rounded=0;orthogonalLoop=1;jettySize=auto;html=1;entryX=0.387;entryY=0.989;entryDx=0;entryDy=0;fontSize=12;startSize=8;endSize=8;entryPerimeter=0;" parent="WIyWlLk6GJQsqaUBKTNV-1" source="sJ1ZpcTcMJj1yfrNuu4c-111" target="sJ1ZpcTcMJj1yfrNuu4c-101" edge="1">
          <mxGeometry relative="1" as="geometry" />
        </mxCell>
        <mxCell id="sJ1ZpcTcMJj1yfrNuu4c-111" value="fecha_hora" style="ellipse;whiteSpace=wrap;html=1;fontSize=16;fillColor=#6a00ff;fontColor=#ffffff;strokeColor=#3700CC;" parent="WIyWlLk6GJQsqaUBKTNV-1" vertex="1">
          <mxGeometry x="382" y="802" width="100" height="25" as="geometry" />
        </mxCell>
        <mxCell id="sJ1ZpcTcMJj1yfrNuu4c-114" style="edgeStyle=none;curved=1;rounded=0;orthogonalLoop=1;jettySize=auto;html=1;entryX=0.603;entryY=0.997;entryDx=0;entryDy=0;fontSize=12;startSize=8;endSize=8;entryPerimeter=0;" parent="WIyWlLk6GJQsqaUBKTNV-1" source="sJ1ZpcTcMJj1yfrNuu4c-113" target="sJ1ZpcTcMJj1yfrNuu4c-101" edge="1">
          <mxGeometry relative="1" as="geometry" />
        </mxCell>
        <mxCell id="sJ1ZpcTcMJj1yfrNuu4c-113" value="categoria" style="ellipse;whiteSpace=wrap;html=1;fontSize=16;fillColor=#6a00ff;fontColor=#ffffff;strokeColor=#3700CC;" parent="WIyWlLk6GJQsqaUBKTNV-1" vertex="1">
          <mxGeometry x="441" y="752" width="80" height="30" as="geometry" />
        </mxCell>
        <mxCell id="sJ1ZpcTcMJj1yfrNuu4c-117" style="edgeStyle=none;curved=1;rounded=0;orthogonalLoop=1;jettySize=auto;html=1;entryX=0.833;entryY=1;entryDx=0;entryDy=0;entryPerimeter=0;fontSize=12;startSize=8;endSize=8;" parent="WIyWlLk6GJQsqaUBKTNV-1" source="sJ1ZpcTcMJj1yfrNuu4c-115" target="sJ1ZpcTcMJj1yfrNuu4c-101" edge="1">
          <mxGeometry relative="1" as="geometry" />
        </mxCell>
        <mxCell id="sJ1ZpcTcMJj1yfrNuu4c-115" value="equipo_&lt;br&gt;local" style="ellipse;whiteSpace=wrap;html=1;fontSize=16;fillColor=#6a00ff;fontColor=#ffffff;strokeColor=#3700CC;" parent="WIyWlLk6GJQsqaUBKTNV-1" vertex="1">
          <mxGeometry x="465" y="701" width="80" height="36" as="geometry" />
        </mxCell>
        <mxCell id="sJ1ZpcTcMJj1yfrNuu4c-118" style="edgeStyle=none;curved=1;rounded=0;orthogonalLoop=1;jettySize=auto;html=1;entryX=0.184;entryY=1.055;entryDx=0;entryDy=0;entryPerimeter=0;fontSize=12;startSize=8;endSize=8;" parent="WIyWlLk6GJQsqaUBKTNV-1" source="sJ1ZpcTcMJj1yfrNuu4c-116" target="sJ1ZpcTcMJj1yfrNuu4c-101" edge="1">
          <mxGeometry relative="1" as="geometry" />
        </mxCell>
        <mxCell id="sJ1ZpcTcMJj1yfrNuu4c-120" style="edgeStyle=none;curved=1;rounded=0;orthogonalLoop=1;jettySize=auto;html=1;entryX=-0.013;entryY=0.652;entryDx=0;entryDy=0;entryPerimeter=0;fontSize=12;startSize=8;endSize=8;" parent="WIyWlLk6GJQsqaUBKTNV-1" source="sJ1ZpcTcMJj1yfrNuu4c-119" target="sJ1ZpcTcMJj1yfrNuu4c-101" edge="1">
          <mxGeometry relative="1" as="geometry" />
        </mxCell>
        <mxCell id="sJ1ZpcTcMJj1yfrNuu4c-119" value="id_ganador" style="ellipse;whiteSpace=wrap;html=1;fontSize=16;fillColor=#6a00ff;fontColor=#ffffff;strokeColor=#3700CC;" parent="WIyWlLk6GJQsqaUBKTNV-1" vertex="1">
          <mxGeometry x="302" y="641" width="90" height="30" as="geometry" />
        </mxCell>
        <mxCell id="sJ1ZpcTcMJj1yfrNuu4c-122" style="edgeStyle=none;curved=1;rounded=0;orthogonalLoop=1;jettySize=auto;html=1;entryX=0;entryY=0.25;entryDx=0;entryDy=0;fontSize=12;startSize=8;endSize=8;" parent="WIyWlLk6GJQsqaUBKTNV-1" source="sJ1ZpcTcMJj1yfrNuu4c-121" target="sJ1ZpcTcMJj1yfrNuu4c-101" edge="1">
          <mxGeometry relative="1" as="geometry" />
        </mxCell>
        <mxCell id="sJ1ZpcTcMJj1yfrNuu4c-121" value="id_perdedor" style="ellipse;whiteSpace=wrap;html=1;fontSize=16;fillColor=#6a00ff;fontColor=#ffffff;strokeColor=#3700CC;" parent="WIyWlLk6GJQsqaUBKTNV-1" vertex="1">
          <mxGeometry x="302" y="607" width="100" height="30" as="geometry" />
        </mxCell>
        <mxCell id="sJ1ZpcTcMJj1yfrNuu4c-124" style="edgeStyle=none;curved=1;rounded=0;orthogonalLoop=1;jettySize=auto;html=1;entryX=0;entryY=1;entryDx=0;entryDy=0;fontSize=12;startSize=8;endSize=8;" parent="WIyWlLk6GJQsqaUBKTNV-1" source="sJ1ZpcTcMJj1yfrNuu4c-123" target="sJ1ZpcTcMJj1yfrNuu4c-101" edge="1">
          <mxGeometry relative="1" as="geometry" />
        </mxCell>
        <mxCell id="sJ1ZpcTcMJj1yfrNuu4c-123" value="goles_&lt;br&gt;perdedor" style="ellipse;whiteSpace=wrap;html=1;fontSize=16;fillColor=#6a00ff;fontColor=#ffffff;strokeColor=#3700CC;" parent="WIyWlLk6GJQsqaUBKTNV-1" vertex="1">
          <mxGeometry x="282" y="682" width="80" height="45" as="geometry" />
        </mxCell>
        <mxCell id="sJ1ZpcTcMJj1yfrNuu4c-126" style="edgeStyle=none;curved=1;rounded=0;orthogonalLoop=1;jettySize=auto;html=1;entryX=0.139;entryY=1.071;entryDx=0;entryDy=0;entryPerimeter=0;fontSize=12;startSize=8;endSize=8;" parent="WIyWlLk6GJQsqaUBKTNV-1" source="sJ1ZpcTcMJj1yfrNuu4c-125" target="sJ1ZpcTcMJj1yfrNuu4c-101" edge="1">
          <mxGeometry relative="1" as="geometry" />
        </mxCell>
        <mxCell id="sJ1ZpcTcMJj1yfrNuu4c-125" value="goles_&lt;br&gt;ganador" style="ellipse;whiteSpace=wrap;html=1;fontSize=16;fillColor=#6a00ff;fontColor=#ffffff;strokeColor=#3700CC;" parent="WIyWlLk6GJQsqaUBKTNV-1" vertex="1">
          <mxGeometry x="342" y="737" width="80" height="45" as="geometry" />
        </mxCell>
        <mxCell id="sJ1ZpcTcMJj1yfrNuu4c-116" value="equipo_&lt;br&gt;visitante" style="ellipse;whiteSpace=wrap;html=1;fontSize=16;fillColor=#6a00ff;fontColor=#ffffff;strokeColor=#3700CC;" parent="WIyWlLk6GJQsqaUBKTNV-1" vertex="1">
          <mxGeometry x="382" y="702" width="80" height="36" as="geometry" />
        </mxCell>
        <mxCell id="sJ1ZpcTcMJj1yfrNuu4c-148" style="edgeStyle=none;curved=1;rounded=0;orthogonalLoop=1;jettySize=auto;html=1;entryX=0.179;entryY=0.75;entryDx=0;entryDy=0;entryPerimeter=0;fontSize=12;startSize=8;endSize=8;" parent="WIyWlLk6GJQsqaUBKTNV-1" source="sJ1ZpcTcMJj1yfrNuu4c-129" target="sJ1ZpcTcMJj1yfrNuu4c-147" edge="1">
          <mxGeometry relative="1" as="geometry" />
        </mxCell>
        <mxCell id="sJ1ZpcTcMJj1yfrNuu4c-129" value="TORNEO" style="rounded=1;whiteSpace=wrap;html=1;fontSize=12;glass=0;strokeWidth=1;shadow=0;fillColor=#1ba1e2;fontColor=#ffffff;strokeColor=#006EAF;" parent="WIyWlLk6GJQsqaUBKTNV-1" vertex="1">
          <mxGeometry x="897" y="207.5" width="120" height="40" as="geometry" />
        </mxCell>
        <mxCell id="sJ1ZpcTcMJj1yfrNuu4c-130" value="REGLAMENTO" style="rounded=1;whiteSpace=wrap;html=1;fontSize=12;glass=0;strokeWidth=1;shadow=0;fillColor=#1ba1e2;fontColor=#ffffff;strokeColor=#006EAF;" parent="WIyWlLk6GJQsqaUBKTNV-1" vertex="1">
          <mxGeometry x="1035" y="61" width="120" height="40" as="geometry" />
        </mxCell>
        <mxCell id="sJ1ZpcTcMJj1yfrNuu4c-132" style="edgeStyle=none;curved=1;rounded=0;orthogonalLoop=1;jettySize=auto;html=1;entryX=0.5;entryY=0;entryDx=0;entryDy=0;fontSize=12;startSize=8;endSize=8;" parent="WIyWlLk6GJQsqaUBKTNV-1" source="sJ1ZpcTcMJj1yfrNuu4c-131" target="sJ1ZpcTcMJj1yfrNuu4c-130" edge="1">
          <mxGeometry relative="1" as="geometry" />
        </mxCell>
        <mxCell id="sJ1ZpcTcMJj1yfrNuu4c-131" value="id_reglamento" style="ellipse;whiteSpace=wrap;html=1;fontSize=16;fillColor=#6a00ff;fontColor=#ffffff;strokeColor=#3700CC;" parent="WIyWlLk6GJQsqaUBKTNV-1" vertex="1">
          <mxGeometry x="1017" y="12" width="140" height="30" as="geometry" />
        </mxCell>
        <mxCell id="sJ1ZpcTcMJj1yfrNuu4c-134" style="edgeStyle=none;curved=1;rounded=0;orthogonalLoop=1;jettySize=auto;html=1;entryX=0.837;entryY=-0.025;entryDx=0;entryDy=0;entryPerimeter=0;fontSize=12;startSize=8;endSize=8;" parent="WIyWlLk6GJQsqaUBKTNV-1" source="JzAl5olY9o-_MMsrC14U-34" target="sJ1ZpcTcMJj1yfrNuu4c-129" edge="1">
          <mxGeometry relative="1" as="geometry" />
        </mxCell>
        <mxCell id="sJ1ZpcTcMJj1yfrNuu4c-133" value="id_torneo" style="ellipse;whiteSpace=wrap;html=1;fontSize=16;fillColor=#6a00ff;fontColor=#ffffff;strokeColor=#3700CC;" parent="WIyWlLk6GJQsqaUBKTNV-1" vertex="1">
          <mxGeometry x="1040" y="202.5" width="100" height="30" as="geometry" />
        </mxCell>
        <mxCell id="sJ1ZpcTcMJj1yfrNuu4c-136" style="edgeStyle=none;curved=1;rounded=0;orthogonalLoop=1;jettySize=auto;html=1;entryX=0.967;entryY=0.009;entryDx=0;entryDy=0;entryPerimeter=0;fontSize=12;startSize=8;endSize=8;" parent="WIyWlLk6GJQsqaUBKTNV-1" source="sJ1ZpcTcMJj1yfrNuu4c-135" target="sJ1ZpcTcMJj1yfrNuu4c-129" edge="1">
          <mxGeometry relative="1" as="geometry" />
        </mxCell>
        <mxCell id="sJ1ZpcTcMJj1yfrNuu4c-138" style="edgeStyle=none;curved=1;rounded=0;orthogonalLoop=1;jettySize=auto;html=1;entryX=1;entryY=0.75;entryDx=0;entryDy=0;fontSize=12;startSize=8;endSize=8;" parent="WIyWlLk6GJQsqaUBKTNV-1" source="sJ1ZpcTcMJj1yfrNuu4c-137" target="sJ1ZpcTcMJj1yfrNuu4c-129" edge="1">
          <mxGeometry relative="1" as="geometry" />
        </mxCell>
        <mxCell id="sJ1ZpcTcMJj1yfrNuu4c-140" style="edgeStyle=none;curved=1;rounded=0;orthogonalLoop=1;jettySize=auto;html=1;entryX=0.445;entryY=0.981;entryDx=0;entryDy=0;entryPerimeter=0;fontSize=12;startSize=8;endSize=8;" parent="WIyWlLk6GJQsqaUBKTNV-1" source="sJ1ZpcTcMJj1yfrNuu4c-139" target="sJ1ZpcTcMJj1yfrNuu4c-129" edge="1">
          <mxGeometry relative="1" as="geometry" />
        </mxCell>
        <mxCell id="sJ1ZpcTcMJj1yfrNuu4c-142" style="edgeStyle=none;curved=1;rounded=0;orthogonalLoop=1;jettySize=auto;html=1;entryX=0.243;entryY=1.118;entryDx=0;entryDy=0;fontSize=12;startSize=8;endSize=8;entryPerimeter=0;" parent="WIyWlLk6GJQsqaUBKTNV-1" source="sJ1ZpcTcMJj1yfrNuu4c-141" target="sJ1ZpcTcMJj1yfrNuu4c-129" edge="1">
          <mxGeometry relative="1" as="geometry" />
        </mxCell>
        <mxCell id="sJ1ZpcTcMJj1yfrNuu4c-144" style="edgeStyle=none;curved=1;rounded=0;orthogonalLoop=1;jettySize=auto;html=1;entryX=0.902;entryY=0.981;entryDx=0;entryDy=0;entryPerimeter=0;fontSize=12;startSize=8;endSize=8;" parent="WIyWlLk6GJQsqaUBKTNV-1" source="sJ1ZpcTcMJj1yfrNuu4c-143" target="sJ1ZpcTcMJj1yfrNuu4c-129" edge="1">
          <mxGeometry relative="1" as="geometry" />
        </mxCell>
        <mxCell id="sJ1ZpcTcMJj1yfrNuu4c-146" style="edgeStyle=none;curved=1;rounded=0;orthogonalLoop=1;jettySize=auto;html=1;entryX=0.673;entryY=0.958;entryDx=0;entryDy=0;entryPerimeter=0;fontSize=12;startSize=8;endSize=8;" parent="WIyWlLk6GJQsqaUBKTNV-1" source="sJ1ZpcTcMJj1yfrNuu4c-145" target="sJ1ZpcTcMJj1yfrNuu4c-129" edge="1">
          <mxGeometry relative="1" as="geometry" />
        </mxCell>
        <mxCell id="sJ1ZpcTcMJj1yfrNuu4c-145" value="id_autoridad_torneo" style="ellipse;whiteSpace=wrap;html=1;fontSize=16;fillColor=#6a00ff;fontColor=#ffffff;strokeColor=#3700CC;" parent="WIyWlLk6GJQsqaUBKTNV-1" vertex="1">
          <mxGeometry x="1001" y="398.5" width="149" height="31" as="geometry" />
        </mxCell>
        <mxCell id="sJ1ZpcTcMJj1yfrNuu4c-143" value="id_autoridad_club" style="ellipse;whiteSpace=wrap;html=1;fontSize=16;fillColor=#6a00ff;fontColor=#ffffff;strokeColor=#3700CC;" parent="WIyWlLk6GJQsqaUBKTNV-1" vertex="1">
          <mxGeometry x="1015" y="354.5" width="125" height="31" as="geometry" />
        </mxCell>
        <mxCell id="sJ1ZpcTcMJj1yfrNuu4c-149" style="edgeStyle=none;curved=1;rounded=0;orthogonalLoop=1;jettySize=auto;html=1;fontSize=12;startSize=8;endSize=8;entryX=0.538;entryY=1.08;entryDx=0;entryDy=0;entryPerimeter=0;" parent="WIyWlLk6GJQsqaUBKTNV-1" source="sJ1ZpcTcMJj1yfrNuu4c-147" target="sJ1ZpcTcMJj1yfrNuu4c-130" edge="1">
          <mxGeometry relative="1" as="geometry" />
        </mxCell>
        <mxCell id="sJ1ZpcTcMJj1yfrNuu4c-186" style="edgeStyle=none;curved=1;rounded=0;orthogonalLoop=1;jettySize=auto;html=1;entryX=1;entryY=0.5;entryDx=0;entryDy=0;fontSize=12;startSize=8;endSize=8;" parent="WIyWlLk6GJQsqaUBKTNV-1" source="JzAl5olY9o-_MMsrC14U-36" target="sJ1ZpcTcMJj1yfrNuu4c-181" edge="1">
          <mxGeometry relative="1" as="geometry" />
        </mxCell>
        <mxCell id="sJ1ZpcTcMJj1yfrNuu4c-147" value="&lt;font color=&quot;#ffffff&quot;&gt;tiene&lt;/font&gt;" style="rhombus;whiteSpace=wrap;html=1;shadow=0;fontFamily=Helvetica;fontSize=12;align=center;strokeWidth=1;spacing=6;spacingTop=-4;fillColor=#fa6800;fontColor=#000000;strokeColor=#C73500;" parent="WIyWlLk6GJQsqaUBKTNV-1" vertex="1">
          <mxGeometry x="1080" y="137" width="80" height="40" as="geometry" />
        </mxCell>
        <mxCell id="sJ1ZpcTcMJj1yfrNuu4c-65" value="id_club" style="ellipse;whiteSpace=wrap;html=1;fontSize=16;fillColor=#6a00ff;fontColor=#ffffff;strokeColor=#3700CC;" parent="WIyWlLk6GJQsqaUBKTNV-1" vertex="1">
          <mxGeometry x="368" y="345" width="80" height="30" as="geometry" />
        </mxCell>
        <mxCell id="sJ1ZpcTcMJj1yfrNuu4c-171" style="edgeStyle=none;curved=1;rounded=0;orthogonalLoop=1;jettySize=auto;html=1;fontSize=12;startSize=8;endSize=8;" parent="WIyWlLk6GJQsqaUBKTNV-1" source="sJ1ZpcTcMJj1yfrNuu4c-151" target="sJ1ZpcTcMJj1yfrNuu4c-152" edge="1">
          <mxGeometry relative="1" as="geometry" />
        </mxCell>
        <mxCell id="sJ1ZpcTcMJj1yfrNuu4c-225" style="edgeStyle=none;curved=1;rounded=0;orthogonalLoop=1;jettySize=auto;html=1;entryX=0.38;entryY=0.041;entryDx=0;entryDy=0;entryPerimeter=0;fontSize=12;startSize=8;endSize=8;" parent="WIyWlLk6GJQsqaUBKTNV-1" source="sJ1ZpcTcMJj1yfrNuu4c-151" target="sJ1ZpcTcMJj1yfrNuu4c-210" edge="1">
          <mxGeometry relative="1" as="geometry">
            <Array as="points">
              <mxPoint x="920" y="490" />
              <mxPoint x="1010" y="690" />
            </Array>
          </mxGeometry>
        </mxCell>
        <mxCell id="sJ1ZpcTcMJj1yfrNuu4c-241" style="edgeStyle=none;curved=1;rounded=0;orthogonalLoop=1;jettySize=auto;html=1;entryX=0.386;entryY=-0.02;entryDx=0;entryDy=0;entryPerimeter=0;fontSize=12;startSize=8;endSize=8;" parent="WIyWlLk6GJQsqaUBKTNV-1" source="sJ1ZpcTcMJj1yfrNuu4c-151" target="sJ1ZpcTcMJj1yfrNuu4c-226" edge="1">
          <mxGeometry relative="1" as="geometry" />
        </mxCell>
        <mxCell id="sJ1ZpcTcMJj1yfrNuu4c-151" value="&lt;font color=&quot;#ffffff&quot;&gt;tiene&lt;/font&gt;" style="rhombus;whiteSpace=wrap;html=1;shadow=0;fontFamily=Helvetica;fontSize=12;align=center;strokeWidth=1;spacing=6;spacingTop=-4;fillColor=#fa6800;fontColor=#000000;strokeColor=#C73500;" parent="WIyWlLk6GJQsqaUBKTNV-1" vertex="1">
          <mxGeometry x="799" y="314.5" width="80" height="40" as="geometry" />
        </mxCell>
        <mxCell id="sJ1ZpcTcMJj1yfrNuu4c-152" value="ARBITRO" style="rounded=1;whiteSpace=wrap;html=1;fontSize=12;glass=0;strokeWidth=1;shadow=0;fillColor=#1ba1e2;fontColor=#ffffff;strokeColor=#006EAF;" parent="WIyWlLk6GJQsqaUBKTNV-1" vertex="1">
          <mxGeometry x="998" y="622" width="120" height="40" as="geometry" />
        </mxCell>
        <mxCell id="sJ1ZpcTcMJj1yfrNuu4c-156" style="edgeStyle=none;curved=1;rounded=0;orthogonalLoop=1;jettySize=auto;html=1;entryX=1;entryY=0.5;entryDx=0;entryDy=0;fontSize=12;startSize=8;endSize=8;" parent="WIyWlLk6GJQsqaUBKTNV-1" source="sJ1ZpcTcMJj1yfrNuu4c-153" target="sJ1ZpcTcMJj1yfrNuu4c-152" edge="1">
          <mxGeometry relative="1" as="geometry" />
        </mxCell>
        <mxCell id="sJ1ZpcTcMJj1yfrNuu4c-158" style="edgeStyle=none;curved=1;rounded=0;orthogonalLoop=1;jettySize=auto;html=1;entryX=0.601;entryY=1.057;entryDx=0;entryDy=0;entryPerimeter=0;fontSize=12;startSize=8;endSize=8;" parent="WIyWlLk6GJQsqaUBKTNV-1" source="sJ1ZpcTcMJj1yfrNuu4c-157" target="sJ1ZpcTcMJj1yfrNuu4c-152" edge="1">
          <mxGeometry relative="1" as="geometry" />
        </mxCell>
        <mxCell id="sJ1ZpcTcMJj1yfrNuu4c-160" style="edgeStyle=none;curved=1;rounded=0;orthogonalLoop=1;jettySize=auto;html=1;entryX=0.328;entryY=1.028;entryDx=0;entryDy=0;entryPerimeter=0;fontSize=12;startSize=8;endSize=8;" parent="WIyWlLk6GJQsqaUBKTNV-1" source="sJ1ZpcTcMJj1yfrNuu4c-159" target="sJ1ZpcTcMJj1yfrNuu4c-152" edge="1">
          <mxGeometry relative="1" as="geometry" />
        </mxCell>
        <mxCell id="sJ1ZpcTcMJj1yfrNuu4c-163" style="edgeStyle=none;curved=1;rounded=0;orthogonalLoop=1;jettySize=auto;html=1;entryX=0;entryY=0.75;entryDx=0;entryDy=0;fontSize=12;startSize=8;endSize=8;" parent="WIyWlLk6GJQsqaUBKTNV-1" source="sJ1ZpcTcMJj1yfrNuu4c-162" target="sJ1ZpcTcMJj1yfrNuu4c-152" edge="1">
          <mxGeometry relative="1" as="geometry" />
        </mxCell>
        <mxCell id="sJ1ZpcTcMJj1yfrNuu4c-165" style="edgeStyle=none;curved=1;rounded=0;orthogonalLoop=1;jettySize=auto;html=1;entryX=0.75;entryY=1;entryDx=0;entryDy=0;fontSize=12;startSize=8;endSize=8;" parent="WIyWlLk6GJQsqaUBKTNV-1" source="sJ1ZpcTcMJj1yfrNuu4c-159" target="sJ1ZpcTcMJj1yfrNuu4c-152" edge="1">
          <mxGeometry relative="1" as="geometry" />
        </mxCell>
        <mxCell id="sJ1ZpcTcMJj1yfrNuu4c-164" value="años_experiencia" style="ellipse;whiteSpace=wrap;html=1;fontSize=16;fillColor=#6a00ff;fontColor=#ffffff;strokeColor=#3700CC;" parent="WIyWlLk6GJQsqaUBKTNV-1" vertex="1">
          <mxGeometry x="1032.5" y="788" width="120.5" height="25" as="geometry" />
        </mxCell>
        <mxCell id="sJ1ZpcTcMJj1yfrNuu4c-167" style="edgeStyle=none;curved=1;rounded=0;orthogonalLoop=1;jettySize=auto;html=1;entryX=0.241;entryY=1.125;entryDx=0;entryDy=0;fontSize=12;startSize=8;endSize=8;entryPerimeter=0;" parent="WIyWlLk6GJQsqaUBKTNV-1" source="sJ1ZpcTcMJj1yfrNuu4c-166" target="sJ1ZpcTcMJj1yfrNuu4c-152" edge="1">
          <mxGeometry relative="1" as="geometry" />
        </mxCell>
        <mxCell id="sJ1ZpcTcMJj1yfrNuu4c-169" style="edgeStyle=none;curved=1;rounded=0;orthogonalLoop=1;jettySize=auto;html=1;entryX=0.158;entryY=1.056;entryDx=0;entryDy=0;entryPerimeter=0;fontSize=12;startSize=8;endSize=8;" parent="WIyWlLk6GJQsqaUBKTNV-1" source="sJ1ZpcTcMJj1yfrNuu4c-168" target="sJ1ZpcTcMJj1yfrNuu4c-152" edge="1">
          <mxGeometry relative="1" as="geometry" />
        </mxCell>
        <mxCell id="sJ1ZpcTcMJj1yfrNuu4c-168" value="telefono" style="ellipse;whiteSpace=wrap;html=1;fontSize=16;fillColor=#6a00ff;fontColor=#ffffff;strokeColor=#3700CC;" parent="WIyWlLk6GJQsqaUBKTNV-1" vertex="1">
          <mxGeometry x="973" y="765.5" width="70" height="25" as="geometry" />
        </mxCell>
        <mxCell id="sJ1ZpcTcMJj1yfrNuu4c-162" value="dni_arb" style="ellipse;whiteSpace=wrap;html=1;fontSize=16;fillColor=#6a00ff;fontColor=#ffffff;strokeColor=#3700CC;" parent="WIyWlLk6GJQsqaUBKTNV-1" vertex="1">
          <mxGeometry x="951.5" y="793" width="81" height="25" as="geometry" />
        </mxCell>
        <mxCell id="sJ1ZpcTcMJj1yfrNuu4c-172" value="" style="edgeStyle=none;curved=1;rounded=0;orthogonalLoop=1;jettySize=auto;html=1;entryX=0.939;entryY=0.973;entryDx=0;entryDy=0;fontSize=12;startSize=8;endSize=8;entryPerimeter=0;" parent="WIyWlLk6GJQsqaUBKTNV-1" target="sJ1ZpcTcMJj1yfrNuu4c-152" edge="1">
          <mxGeometry relative="1" as="geometry">
            <mxPoint x="1113" y="786" as="sourcePoint" />
            <mxPoint x="1088" y="661" as="targetPoint" />
          </mxGeometry>
        </mxCell>
        <mxCell id="sJ1ZpcTcMJj1yfrNuu4c-157" value="nombre_arb" style="ellipse;whiteSpace=wrap;html=1;fontSize=16;fillColor=#6a00ff;fontColor=#ffffff;strokeColor=#3700CC;" parent="WIyWlLk6GJQsqaUBKTNV-1" vertex="1">
          <mxGeometry x="1018" y="686" width="100" height="25" as="geometry" />
        </mxCell>
        <mxCell id="sJ1ZpcTcMJj1yfrNuu4c-159" value="apellido_arb" style="ellipse;whiteSpace=wrap;html=1;fontSize=16;fillColor=#6a00ff;fontColor=#ffffff;strokeColor=#3700CC;" parent="WIyWlLk6GJQsqaUBKTNV-1" vertex="1">
          <mxGeometry x="1043" y="746" width="100" height="25" as="geometry" />
        </mxCell>
        <mxCell id="sJ1ZpcTcMJj1yfrNuu4c-153" value="id_arbitro" style="ellipse;whiteSpace=wrap;html=1;fontSize=16;fillColor=#6a00ff;fontColor=#ffffff;strokeColor=#3700CC;" parent="WIyWlLk6GJQsqaUBKTNV-1" vertex="1">
          <mxGeometry x="1083" y="708.5" width="80" height="25" as="geometry" />
        </mxCell>
        <mxCell id="sJ1ZpcTcMJj1yfrNuu4c-178" value="" style="edgeStyle=none;curved=1;rounded=0;orthogonalLoop=1;jettySize=auto;html=1;entryX=0.5;entryY=0;entryDx=0;entryDy=0;fontSize=12;startSize=8;endSize=8;" parent="WIyWlLk6GJQsqaUBKTNV-1" source="sJ1ZpcTcMJj1yfrNuu4c-59" target="sJ1ZpcTcMJj1yfrNuu4c-51" edge="1">
          <mxGeometry relative="1" as="geometry">
            <mxPoint x="57" y="74" as="sourcePoint" />
            <mxPoint x="40" y="90" as="targetPoint" />
          </mxGeometry>
        </mxCell>
        <mxCell id="sJ1ZpcTcMJj1yfrNuu4c-54" value="id_posicion" style="ellipse;whiteSpace=wrap;html=1;fontSize=16;fillColor=#6a00ff;fontColor=#ffffff;strokeColor=#3700CC;" parent="WIyWlLk6GJQsqaUBKTNV-1" vertex="1">
          <mxGeometry y="177.5" width="100" height="25" as="geometry" />
        </mxCell>
        <mxCell id="sJ1ZpcTcMJj1yfrNuu4c-82" value="nombre_entrenador" style="ellipse;whiteSpace=wrap;html=1;fontSize=16;fillColor=#6a00ff;fontColor=#ffffff;strokeColor=#3700CC;" parent="WIyWlLk6GJQsqaUBKTNV-1" vertex="1">
          <mxGeometry x="323" y="47.5" width="170" height="25" as="geometry" />
        </mxCell>
        <mxCell id="sJ1ZpcTcMJj1yfrNuu4c-78" value="nombre_dt" style="ellipse;whiteSpace=wrap;html=1;fontSize=16;fillColor=#6a00ff;fontColor=#ffffff;strokeColor=#3700CC;" parent="WIyWlLk6GJQsqaUBKTNV-1" vertex="1">
          <mxGeometry x="505" y="51" width="100" height="25" as="geometry" />
        </mxCell>
        <mxCell id="sJ1ZpcTcMJj1yfrNuu4c-84" value="apellido_entrenador" style="ellipse;whiteSpace=wrap;html=1;fontSize=16;fillColor=#6a00ff;fontColor=#ffffff;strokeColor=#3700CC;" parent="WIyWlLk6GJQsqaUBKTNV-1" vertex="1">
          <mxGeometry x="420" y="152" width="170" height="25" as="geometry" />
        </mxCell>
        <mxCell id="sJ1ZpcTcMJj1yfrNuu4c-135" value="partidos_a_&lt;br&gt;jugar" style="ellipse;whiteSpace=wrap;html=1;fontSize=16;fillColor=#6a00ff;fontColor=#ffffff;strokeColor=#3700CC;" parent="WIyWlLk6GJQsqaUBKTNV-1" vertex="1">
          <mxGeometry x="1051" y="241.5" width="100" height="45" as="geometry" />
        </mxCell>
        <mxCell id="sJ1ZpcTcMJj1yfrNuu4c-137" value="partidos_&lt;br&gt;jugados" style="ellipse;whiteSpace=wrap;html=1;fontSize=16;fillColor=#6a00ff;fontColor=#ffffff;strokeColor=#3700CC;" parent="WIyWlLk6GJQsqaUBKTNV-1" vertex="1">
          <mxGeometry x="1055" y="292.5" width="100" height="45" as="geometry" />
        </mxCell>
        <mxCell id="sJ1ZpcTcMJj1yfrNuu4c-141" value="id_ganador" style="ellipse;whiteSpace=wrap;html=1;fontSize=16;fillColor=#6a00ff;fontColor=#ffffff;strokeColor=#3700CC;" parent="WIyWlLk6GJQsqaUBKTNV-1" vertex="1">
          <mxGeometry x="959" y="319.5" width="90" height="30" as="geometry" />
        </mxCell>
        <mxCell id="sJ1ZpcTcMJj1yfrNuu4c-139" value="nombre" style="ellipse;whiteSpace=wrap;html=1;fontSize=16;fillColor=#6a00ff;fontColor=#ffffff;strokeColor=#3700CC;" parent="WIyWlLk6GJQsqaUBKTNV-1" vertex="1">
          <mxGeometry x="939" y="284.5" width="100" height="30" as="geometry" />
        </mxCell>
        <mxCell id="sJ1ZpcTcMJj1yfrNuu4c-185" style="edgeStyle=none;curved=1;rounded=0;orthogonalLoop=1;jettySize=auto;html=1;entryX=0.356;entryY=0.087;entryDx=0;entryDy=0;entryPerimeter=0;fontSize=12;startSize=8;endSize=8;" parent="WIyWlLk6GJQsqaUBKTNV-1" source="sJ1ZpcTcMJj1yfrNuu4c-181" target="sJ1ZpcTcMJj1yfrNuu4c-184" edge="1">
          <mxGeometry relative="1" as="geometry" />
        </mxCell>
        <mxCell id="sJ1ZpcTcMJj1yfrNuu4c-181" value="AUTORIDAD_&lt;br&gt;TORNEO" style="rounded=1;whiteSpace=wrap;html=1;fontSize=12;glass=0;strokeWidth=1;shadow=0;fillColor=#1ba1e2;fontColor=#ffffff;strokeColor=#006EAF;" parent="WIyWlLk6GJQsqaUBKTNV-1" vertex="1">
          <mxGeometry x="810" width="120" height="40" as="geometry" />
        </mxCell>
        <mxCell id="sJ1ZpcTcMJj1yfrNuu4c-189" style="edgeStyle=none;curved=1;rounded=0;orthogonalLoop=1;jettySize=auto;html=1;entryX=0.187;entryY=1.005;entryDx=0;entryDy=0;entryPerimeter=0;fontSize=12;startSize=8;endSize=8;" parent="WIyWlLk6GJQsqaUBKTNV-1" source="sJ1ZpcTcMJj1yfrNuu4c-187" target="sJ1ZpcTcMJj1yfrNuu4c-181" edge="1">
          <mxGeometry relative="1" as="geometry" />
        </mxCell>
        <mxCell id="sJ1ZpcTcMJj1yfrNuu4c-187" value="nombre_aut" style="ellipse;whiteSpace=wrap;html=1;fontSize=16;fillColor=#6a00ff;fontColor=#ffffff;strokeColor=#3700CC;" parent="WIyWlLk6GJQsqaUBKTNV-1" vertex="1">
          <mxGeometry x="700" y="5" width="100" height="25" as="geometry" />
        </mxCell>
        <mxCell id="sJ1ZpcTcMJj1yfrNuu4c-190" style="edgeStyle=none;curved=1;rounded=0;orthogonalLoop=1;jettySize=auto;html=1;entryX=0.433;entryY=1.025;entryDx=0;entryDy=0;entryPerimeter=0;fontSize=12;startSize=8;endSize=8;" parent="WIyWlLk6GJQsqaUBKTNV-1" source="sJ1ZpcTcMJj1yfrNuu4c-188" target="sJ1ZpcTcMJj1yfrNuu4c-181" edge="1">
          <mxGeometry relative="1" as="geometry" />
        </mxCell>
        <mxCell id="sJ1ZpcTcMJj1yfrNuu4c-188" value="apellido_aut" style="ellipse;whiteSpace=wrap;html=1;fontSize=16;fillColor=#6a00ff;fontColor=#ffffff;strokeColor=#3700CC;" parent="WIyWlLk6GJQsqaUBKTNV-1" vertex="1">
          <mxGeometry x="721" y="40" width="100" height="25" as="geometry" />
        </mxCell>
        <mxCell id="sJ1ZpcTcMJj1yfrNuu4c-184" value="id_autoridad_torneo" style="ellipse;whiteSpace=wrap;html=1;fontSize=16;fillColor=#6a00ff;fontColor=#ffffff;strokeColor=#3700CC;" parent="WIyWlLk6GJQsqaUBKTNV-1" vertex="1">
          <mxGeometry x="721" y="80" width="170" height="31" as="geometry" />
        </mxCell>
        <mxCell id="sJ1ZpcTcMJj1yfrNuu4c-193" style="edgeStyle=none;curved=1;rounded=0;orthogonalLoop=1;jettySize=auto;html=1;entryX=0.667;entryY=1;entryDx=0;entryDy=0;entryPerimeter=0;fontSize=12;startSize=8;endSize=8;" parent="WIyWlLk6GJQsqaUBKTNV-1" source="sJ1ZpcTcMJj1yfrNuu4c-191" target="sJ1ZpcTcMJj1yfrNuu4c-181" edge="1">
          <mxGeometry relative="1" as="geometry" />
        </mxCell>
        <mxCell id="sJ1ZpcTcMJj1yfrNuu4c-195" style="edgeStyle=none;curved=1;rounded=0;orthogonalLoop=1;jettySize=auto;html=1;entryX=1;entryY=1;entryDx=0;entryDy=0;fontSize=12;startSize=8;endSize=8;" parent="WIyWlLk6GJQsqaUBKTNV-1" source="sJ1ZpcTcMJj1yfrNuu4c-194" target="sJ1ZpcTcMJj1yfrNuu4c-181" edge="1">
          <mxGeometry relative="1" as="geometry" />
        </mxCell>
        <mxCell id="sJ1ZpcTcMJj1yfrNuu4c-194" value="cargo_aut" style="ellipse;whiteSpace=wrap;html=1;fontSize=16;fillColor=#6a00ff;fontColor=#ffffff;strokeColor=#3700CC;" parent="WIyWlLk6GJQsqaUBKTNV-1" vertex="1">
          <mxGeometry x="891" y="102.5" width="100" height="25" as="geometry" />
        </mxCell>
        <mxCell id="sJ1ZpcTcMJj1yfrNuu4c-191" value="dni_aut" style="ellipse;whiteSpace=wrap;html=1;fontSize=16;fillColor=#6a00ff;fontColor=#ffffff;strokeColor=#3700CC;" parent="WIyWlLk6GJQsqaUBKTNV-1" vertex="1">
          <mxGeometry x="859" y="57.5" width="100" height="25" as="geometry" />
        </mxCell>
        <mxCell id="sJ1ZpcTcMJj1yfrNuu4c-196" style="edgeStyle=none;curved=1;rounded=0;orthogonalLoop=1;jettySize=auto;html=1;entryX=0.356;entryY=0.087;entryDx=0;entryDy=0;entryPerimeter=0;fontSize=12;startSize=8;endSize=8;" parent="WIyWlLk6GJQsqaUBKTNV-1" source="sJ1ZpcTcMJj1yfrNuu4c-197" target="sJ1ZpcTcMJj1yfrNuu4c-202" edge="1">
          <mxGeometry relative="1" as="geometry" />
        </mxCell>
        <mxCell id="sJ1ZpcTcMJj1yfrNuu4c-198" style="edgeStyle=none;curved=1;rounded=0;orthogonalLoop=1;jettySize=auto;html=1;entryX=0.187;entryY=1.005;entryDx=0;entryDy=0;entryPerimeter=0;fontSize=12;startSize=8;endSize=8;" parent="WIyWlLk6GJQsqaUBKTNV-1" source="sJ1ZpcTcMJj1yfrNuu4c-199" target="sJ1ZpcTcMJj1yfrNuu4c-197" edge="1">
          <mxGeometry relative="1" as="geometry" />
        </mxCell>
        <mxCell id="sJ1ZpcTcMJj1yfrNuu4c-199" value="nombre_aut_c" style="ellipse;whiteSpace=wrap;html=1;fontSize=16;fillColor=#6a00ff;fontColor=#ffffff;strokeColor=#3700CC;" parent="WIyWlLk6GJQsqaUBKTNV-1" vertex="1">
          <mxGeometry x="690" y="127.5" width="100" height="25" as="geometry" />
        </mxCell>
        <mxCell id="sJ1ZpcTcMJj1yfrNuu4c-200" style="edgeStyle=none;curved=1;rounded=0;orthogonalLoop=1;jettySize=auto;html=1;fontSize=12;startSize=8;endSize=8;entryX=-0.013;entryY=0.572;entryDx=0;entryDy=0;entryPerimeter=0;" parent="WIyWlLk6GJQsqaUBKTNV-1" source="sJ1ZpcTcMJj1yfrNuu4c-201" target="sJ1ZpcTcMJj1yfrNuu4c-197" edge="1">
          <mxGeometry relative="1" as="geometry">
            <mxPoint x="700" y="190" as="targetPoint" />
          </mxGeometry>
        </mxCell>
        <mxCell id="sJ1ZpcTcMJj1yfrNuu4c-202" value="id_autoridad_club" style="ellipse;whiteSpace=wrap;html=1;fontSize=16;fillColor=#6a00ff;fontColor=#ffffff;strokeColor=#3700CC;" parent="WIyWlLk6GJQsqaUBKTNV-1" vertex="1">
          <mxGeometry x="630" y="216.5" width="170" height="31" as="geometry" />
        </mxCell>
        <mxCell id="sJ1ZpcTcMJj1yfrNuu4c-203" style="edgeStyle=none;curved=1;rounded=0;orthogonalLoop=1;jettySize=auto;html=1;entryX=0.667;entryY=1;entryDx=0;entryDy=0;entryPerimeter=0;fontSize=12;startSize=8;endSize=8;" parent="WIyWlLk6GJQsqaUBKTNV-1" source="sJ1ZpcTcMJj1yfrNuu4c-206" target="sJ1ZpcTcMJj1yfrNuu4c-197" edge="1">
          <mxGeometry relative="1" as="geometry" />
        </mxCell>
        <mxCell id="sJ1ZpcTcMJj1yfrNuu4c-204" style="edgeStyle=none;curved=1;rounded=0;orthogonalLoop=1;jettySize=auto;html=1;entryX=1;entryY=1;entryDx=0;entryDy=0;fontSize=12;startSize=8;endSize=8;" parent="WIyWlLk6GJQsqaUBKTNV-1" source="sJ1ZpcTcMJj1yfrNuu4c-205" target="sJ1ZpcTcMJj1yfrNuu4c-197" edge="1">
          <mxGeometry relative="1" as="geometry" />
        </mxCell>
        <mxCell id="sJ1ZpcTcMJj1yfrNuu4c-205" value="cargo_c" style="ellipse;whiteSpace=wrap;html=1;fontSize=16;fillColor=#6a00ff;fontColor=#ffffff;strokeColor=#3700CC;" parent="WIyWlLk6GJQsqaUBKTNV-1" vertex="1">
          <mxGeometry x="789" y="207.5" width="100" height="25" as="geometry" />
        </mxCell>
        <mxCell id="sJ1ZpcTcMJj1yfrNuu4c-206" value="dni_c" style="ellipse;whiteSpace=wrap;html=1;fontSize=16;fillColor=#6a00ff;fontColor=#ffffff;strokeColor=#3700CC;" parent="WIyWlLk6GJQsqaUBKTNV-1" vertex="1">
          <mxGeometry x="820" y="137" width="100" height="25" as="geometry" />
        </mxCell>
        <mxCell id="sJ1ZpcTcMJj1yfrNuu4c-209" style="edgeStyle=none;curved=1;rounded=0;orthogonalLoop=1;jettySize=auto;html=1;entryX=0;entryY=0.75;entryDx=0;entryDy=0;fontSize=12;startSize=8;endSize=8;" parent="WIyWlLk6GJQsqaUBKTNV-1" source="sJ1ZpcTcMJj1yfrNuu4c-207" target="sJ1ZpcTcMJj1yfrNuu4c-197" edge="1">
          <mxGeometry relative="1" as="geometry" />
        </mxCell>
        <mxCell id="sJ1ZpcTcMJj1yfrNuu4c-207" value="&lt;font color=&quot;#ffffff&quot;&gt;tiene&lt;/font&gt;" style="rhombus;whiteSpace=wrap;html=1;shadow=0;fontFamily=Helvetica;fontSize=12;align=center;strokeWidth=1;spacing=6;spacingTop=-4;fillColor=#fa6800;fontColor=#000000;strokeColor=#C73500;" parent="WIyWlLk6GJQsqaUBKTNV-1" vertex="1">
          <mxGeometry x="444" y="258.25" width="80" height="40" as="geometry" />
        </mxCell>
        <mxCell id="sJ1ZpcTcMJj1yfrNuu4c-201" value="apellido_aut_c" style="ellipse;whiteSpace=wrap;html=1;fontSize=16;fillColor=#6a00ff;fontColor=#ffffff;strokeColor=#3700CC;" parent="WIyWlLk6GJQsqaUBKTNV-1" vertex="1">
          <mxGeometry x="605" y="163.25" width="100" height="25" as="geometry" />
        </mxCell>
        <mxCell id="sJ1ZpcTcMJj1yfrNuu4c-67" value="nombre_club" style="ellipse;whiteSpace=wrap;html=1;fontSize=16;fillColor=#6a00ff;fontColor=#ffffff;strokeColor=#3700CC;" parent="WIyWlLk6GJQsqaUBKTNV-1" vertex="1">
          <mxGeometry x="250" y="340.25" width="110" height="25" as="geometry" />
        </mxCell>
        <mxCell id="sJ1ZpcTcMJj1yfrNuu4c-210" value="TELEVISACION_&lt;br&gt;PRENSA" style="rounded=1;whiteSpace=wrap;html=1;fontSize=12;glass=0;strokeWidth=1;shadow=0;fillColor=#1ba1e2;fontColor=#ffffff;strokeColor=#006EAF;" parent="WIyWlLk6GJQsqaUBKTNV-1" vertex="1">
          <mxGeometry x="742" y="672.5" width="120" height="40" as="geometry" />
        </mxCell>
        <mxCell id="sJ1ZpcTcMJj1yfrNuu4c-212" style="edgeStyle=none;curved=1;rounded=0;orthogonalLoop=1;jettySize=auto;html=1;entryX=0.446;entryY=1;entryDx=0;entryDy=0;entryPerimeter=0;fontSize=12;startSize=8;endSize=8;" parent="WIyWlLk6GJQsqaUBKTNV-1" source="sJ1ZpcTcMJj1yfrNuu4c-211" target="sJ1ZpcTcMJj1yfrNuu4c-210" edge="1">
          <mxGeometry relative="1" as="geometry" />
        </mxCell>
        <mxCell id="sJ1ZpcTcMJj1yfrNuu4c-220" style="edgeStyle=none;curved=1;rounded=0;orthogonalLoop=1;jettySize=auto;html=1;entryX=1;entryY=0.75;entryDx=0;entryDy=0;fontSize=12;startSize=8;endSize=8;" parent="WIyWlLk6GJQsqaUBKTNV-1" source="sJ1ZpcTcMJj1yfrNuu4c-213" target="sJ1ZpcTcMJj1yfrNuu4c-210" edge="1">
          <mxGeometry relative="1" as="geometry" />
        </mxCell>
        <mxCell id="sJ1ZpcTcMJj1yfrNuu4c-219" style="edgeStyle=none;curved=1;rounded=0;orthogonalLoop=1;jettySize=auto;html=1;entryX=0.064;entryY=1.097;entryDx=0;entryDy=0;entryPerimeter=0;fontSize=12;startSize=8;endSize=8;" parent="WIyWlLk6GJQsqaUBKTNV-1" source="sJ1ZpcTcMJj1yfrNuu4c-214" target="sJ1ZpcTcMJj1yfrNuu4c-210" edge="1">
          <mxGeometry relative="1" as="geometry" />
        </mxCell>
        <mxCell id="sJ1ZpcTcMJj1yfrNuu4c-214" value="remuneracion" style="ellipse;whiteSpace=wrap;html=1;fontSize=16;fillColor=#6a00ff;fontColor=#ffffff;strokeColor=#3700CC;" parent="WIyWlLk6GJQsqaUBKTNV-1" vertex="1">
          <mxGeometry x="647" y="737.5" width="100" height="30" as="geometry" />
        </mxCell>
        <mxCell id="sJ1ZpcTcMJj1yfrNuu4c-222" style="edgeStyle=none;curved=1;rounded=0;orthogonalLoop=1;jettySize=auto;html=1;entryX=0.25;entryY=1;entryDx=0;entryDy=0;fontSize=12;startSize=8;endSize=8;" parent="WIyWlLk6GJQsqaUBKTNV-1" source="sJ1ZpcTcMJj1yfrNuu4c-215" target="sJ1ZpcTcMJj1yfrNuu4c-210" edge="1">
          <mxGeometry relative="1" as="geometry" />
        </mxCell>
        <mxCell id="sJ1ZpcTcMJj1yfrNuu4c-215" value="nombre_prensa" style="ellipse;whiteSpace=wrap;html=1;fontSize=16;fillColor=#6a00ff;fontColor=#ffffff;strokeColor=#3700CC;" parent="WIyWlLk6GJQsqaUBKTNV-1" vertex="1">
          <mxGeometry x="687" y="782.5" width="120" height="30" as="geometry" />
        </mxCell>
        <mxCell id="sJ1ZpcTcMJj1yfrNuu4c-166" value="mail" style="ellipse;whiteSpace=wrap;html=1;fontSize=16;fillColor=#6a00ff;fontColor=#ffffff;strokeColor=#3700CC;" parent="WIyWlLk6GJQsqaUBKTNV-1" vertex="1">
          <mxGeometry x="1003" y="721" width="40" height="25" as="geometry" />
        </mxCell>
        <mxCell id="sJ1ZpcTcMJj1yfrNuu4c-218" style="edgeStyle=none;curved=1;rounded=0;orthogonalLoop=1;jettySize=auto;html=1;fontSize=12;startSize=8;endSize=8;" parent="WIyWlLk6GJQsqaUBKTNV-1" source="sJ1ZpcTcMJj1yfrNuu4c-216" target="sJ1ZpcTcMJj1yfrNuu4c-210" edge="1">
          <mxGeometry relative="1" as="geometry" />
        </mxCell>
        <mxCell id="sJ1ZpcTcMJj1yfrNuu4c-216" value="mail" style="ellipse;whiteSpace=wrap;html=1;fontSize=16;fillColor=#6a00ff;fontColor=#ffffff;strokeColor=#3700CC;" parent="WIyWlLk6GJQsqaUBKTNV-1" vertex="1">
          <mxGeometry x="688" y="692.5" width="40" height="25" as="geometry" />
        </mxCell>
        <mxCell id="sJ1ZpcTcMJj1yfrNuu4c-221" style="edgeStyle=none;curved=1;rounded=0;orthogonalLoop=1;jettySize=auto;html=1;entryX=0.75;entryY=1;entryDx=0;entryDy=0;fontSize=12;startSize=8;endSize=8;" parent="WIyWlLk6GJQsqaUBKTNV-1" source="sJ1ZpcTcMJj1yfrNuu4c-217" target="sJ1ZpcTcMJj1yfrNuu4c-210" edge="1">
          <mxGeometry relative="1" as="geometry" />
        </mxCell>
        <mxCell id="sJ1ZpcTcMJj1yfrNuu4c-213" value="nro_cams_dispo" style="ellipse;whiteSpace=wrap;html=1;fontSize=16;fillColor=#6a00ff;fontColor=#ffffff;strokeColor=#3700CC;" parent="WIyWlLk6GJQsqaUBKTNV-1" vertex="1">
          <mxGeometry x="844" y="711.5" width="130" height="30" as="geometry" />
        </mxCell>
        <mxCell id="sJ1ZpcTcMJj1yfrNuu4c-224" style="edgeStyle=none;curved=1;rounded=0;orthogonalLoop=1;jettySize=auto;html=1;entryX=0.597;entryY=1.069;entryDx=0;entryDy=0;entryPerimeter=0;fontSize=12;startSize=8;endSize=8;" parent="WIyWlLk6GJQsqaUBKTNV-1" source="sJ1ZpcTcMJj1yfrNuu4c-223" target="sJ1ZpcTcMJj1yfrNuu4c-210" edge="1">
          <mxGeometry relative="1" as="geometry" />
        </mxCell>
        <mxCell id="sJ1ZpcTcMJj1yfrNuu4c-223" value="trae_periodista" style="ellipse;whiteSpace=wrap;html=1;fontSize=16;fillColor=#6a00ff;fontColor=#ffffff;strokeColor=#3700CC;" parent="WIyWlLk6GJQsqaUBKTNV-1" vertex="1">
          <mxGeometry x="816" y="788" width="120" height="30" as="geometry" />
        </mxCell>
        <mxCell id="sJ1ZpcTcMJj1yfrNuu4c-217" value="telefono" style="ellipse;whiteSpace=wrap;html=1;fontSize=16;fillColor=#6a00ff;fontColor=#ffffff;strokeColor=#3700CC;" parent="WIyWlLk6GJQsqaUBKTNV-1" vertex="1">
          <mxGeometry x="847" y="755.5" width="70" height="25" as="geometry" />
        </mxCell>
        <mxCell id="sJ1ZpcTcMJj1yfrNuu4c-211" value="id_prensa" style="ellipse;whiteSpace=wrap;html=1;fontSize=16;fillColor=#6a00ff;fontColor=#ffffff;strokeColor=#3700CC;" parent="WIyWlLk6GJQsqaUBKTNV-1" vertex="1">
          <mxGeometry x="758" y="736.5" width="80" height="30" as="geometry" />
        </mxCell>
        <mxCell id="sJ1ZpcTcMJj1yfrNuu4c-226" value="PERIODISTA" style="rounded=1;whiteSpace=wrap;html=1;fontSize=12;glass=0;strokeWidth=1;shadow=0;fillColor=#1ba1e2;fontColor=#ffffff;strokeColor=#006EAF;" parent="WIyWlLk6GJQsqaUBKTNV-1" vertex="1">
          <mxGeometry x="657" y="461.5" width="120" height="40" as="geometry" />
        </mxCell>
        <mxCell id="sJ1ZpcTcMJj1yfrNuu4c-227" style="edgeStyle=none;curved=1;rounded=0;orthogonalLoop=1;jettySize=auto;html=1;entryX=0.446;entryY=1;entryDx=0;entryDy=0;entryPerimeter=0;fontSize=12;startSize=8;endSize=8;" parent="WIyWlLk6GJQsqaUBKTNV-1" source="sJ1ZpcTcMJj1yfrNuu4c-240" target="sJ1ZpcTcMJj1yfrNuu4c-226" edge="1">
          <mxGeometry relative="1" as="geometry" />
        </mxCell>
        <mxCell id="sJ1ZpcTcMJj1yfrNuu4c-228" style="edgeStyle=none;curved=1;rounded=0;orthogonalLoop=1;jettySize=auto;html=1;entryX=1;entryY=0.75;entryDx=0;entryDy=0;fontSize=12;startSize=8;endSize=8;" parent="WIyWlLk6GJQsqaUBKTNV-1" source="sJ1ZpcTcMJj1yfrNuu4c-236" target="sJ1ZpcTcMJj1yfrNuu4c-226" edge="1">
          <mxGeometry relative="1" as="geometry" />
        </mxCell>
        <mxCell id="sJ1ZpcTcMJj1yfrNuu4c-229" style="edgeStyle=none;curved=1;rounded=0;orthogonalLoop=1;jettySize=auto;html=1;entryX=0.064;entryY=1.097;entryDx=0;entryDy=0;entryPerimeter=0;fontSize=12;startSize=8;endSize=8;" parent="WIyWlLk6GJQsqaUBKTNV-1" source="sJ1ZpcTcMJj1yfrNuu4c-230" target="sJ1ZpcTcMJj1yfrNuu4c-226" edge="1">
          <mxGeometry relative="1" as="geometry" />
        </mxCell>
        <mxCell id="sJ1ZpcTcMJj1yfrNuu4c-230" value="remuneracion" style="ellipse;whiteSpace=wrap;html=1;fontSize=16;fillColor=#6a00ff;fontColor=#ffffff;strokeColor=#3700CC;" parent="WIyWlLk6GJQsqaUBKTNV-1" vertex="1">
          <mxGeometry x="562" y="526.5" width="100" height="30" as="geometry" />
        </mxCell>
        <mxCell id="sJ1ZpcTcMJj1yfrNuu4c-231" style="edgeStyle=none;curved=1;rounded=0;orthogonalLoop=1;jettySize=auto;html=1;entryX=0.25;entryY=1;entryDx=0;entryDy=0;fontSize=12;startSize=8;endSize=8;" parent="WIyWlLk6GJQsqaUBKTNV-1" source="sJ1ZpcTcMJj1yfrNuu4c-232" target="sJ1ZpcTcMJj1yfrNuu4c-226" edge="1">
          <mxGeometry relative="1" as="geometry" />
        </mxCell>
        <mxCell id="sJ1ZpcTcMJj1yfrNuu4c-232" value="nombre_periodista" style="ellipse;whiteSpace=wrap;html=1;fontSize=16;fillColor=#6a00ff;fontColor=#ffffff;strokeColor=#3700CC;" parent="WIyWlLk6GJQsqaUBKTNV-1" vertex="1">
          <mxGeometry x="590" y="571.5" width="132" height="30" as="geometry" />
        </mxCell>
        <mxCell id="sJ1ZpcTcMJj1yfrNuu4c-233" style="edgeStyle=none;curved=1;rounded=0;orthogonalLoop=1;jettySize=auto;html=1;fontSize=12;startSize=8;endSize=8;" parent="WIyWlLk6GJQsqaUBKTNV-1" source="sJ1ZpcTcMJj1yfrNuu4c-234" target="sJ1ZpcTcMJj1yfrNuu4c-226" edge="1">
          <mxGeometry relative="1" as="geometry" />
        </mxCell>
        <mxCell id="sJ1ZpcTcMJj1yfrNuu4c-234" value="mail_p" style="ellipse;whiteSpace=wrap;html=1;fontSize=16;fillColor=#6a00ff;fontColor=#ffffff;strokeColor=#3700CC;" parent="WIyWlLk6GJQsqaUBKTNV-1" vertex="1">
          <mxGeometry x="590" y="481.5" width="52" height="25" as="geometry" />
        </mxCell>
        <mxCell id="sJ1ZpcTcMJj1yfrNuu4c-235" style="edgeStyle=none;curved=1;rounded=0;orthogonalLoop=1;jettySize=auto;html=1;entryX=0.75;entryY=1;entryDx=0;entryDy=0;fontSize=12;startSize=8;endSize=8;" parent="WIyWlLk6GJQsqaUBKTNV-1" source="sJ1ZpcTcMJj1yfrNuu4c-239" target="sJ1ZpcTcMJj1yfrNuu4c-226" edge="1">
          <mxGeometry relative="1" as="geometry" />
        </mxCell>
        <mxCell id="sJ1ZpcTcMJj1yfrNuu4c-236" value="dni_p&amp;nbsp;" style="ellipse;whiteSpace=wrap;html=1;fontSize=16;fillColor=#6a00ff;fontColor=#ffffff;strokeColor=#3700CC;" parent="WIyWlLk6GJQsqaUBKTNV-1" vertex="1">
          <mxGeometry x="759" y="500.5" width="130" height="30" as="geometry" />
        </mxCell>
        <mxCell id="sJ1ZpcTcMJj1yfrNuu4c-237" style="edgeStyle=none;curved=1;rounded=0;orthogonalLoop=1;jettySize=auto;html=1;entryX=0.597;entryY=1.069;entryDx=0;entryDy=0;entryPerimeter=0;fontSize=12;startSize=8;endSize=8;" parent="WIyWlLk6GJQsqaUBKTNV-1" source="sJ1ZpcTcMJj1yfrNuu4c-238" target="sJ1ZpcTcMJj1yfrNuu4c-226" edge="1">
          <mxGeometry relative="1" as="geometry" />
        </mxCell>
        <mxCell id="sJ1ZpcTcMJj1yfrNuu4c-238" value="es_independiente" style="ellipse;whiteSpace=wrap;html=1;fontSize=16;fillColor=#6a00ff;fontColor=#ffffff;strokeColor=#3700CC;" parent="WIyWlLk6GJQsqaUBKTNV-1" vertex="1">
          <mxGeometry x="731" y="577" width="141" height="30" as="geometry" />
        </mxCell>
        <mxCell id="sJ1ZpcTcMJj1yfrNuu4c-239" value="telefono_p" style="ellipse;whiteSpace=wrap;html=1;fontSize=16;fillColor=#6a00ff;fontColor=#ffffff;strokeColor=#3700CC;" parent="WIyWlLk6GJQsqaUBKTNV-1" vertex="1">
          <mxGeometry x="762" y="544.5" width="70" height="25" as="geometry" />
        </mxCell>
        <mxCell id="sJ1ZpcTcMJj1yfrNuu4c-240" value="id_periodista" style="ellipse;whiteSpace=wrap;html=1;fontSize=16;fillColor=#6a00ff;fontColor=#ffffff;strokeColor=#3700CC;" parent="WIyWlLk6GJQsqaUBKTNV-1" vertex="1">
          <mxGeometry x="670" y="525.5" width="93" height="30" as="geometry" />
        </mxCell>
        <mxCell id="sJ1ZpcTcMJj1yfrNuu4c-197" value="AUTORIDAD_&lt;br&gt;CLUB" style="rounded=1;whiteSpace=wrap;html=1;fontSize=12;glass=0;strokeWidth=1;shadow=0;fillColor=#1ba1e2;fontColor=#ffffff;strokeColor=#006EAF;" parent="WIyWlLk6GJQsqaUBKTNV-1" vertex="1">
          <mxGeometry x="710" y="163.25" width="120" height="40" as="geometry" />
        </mxCell>
        <mxCell id="JzAl5olY9o-_MMsrC14U-3" value="1" style="rounded=1;whiteSpace=wrap;html=1;fontSize=12;glass=0;strokeWidth=1;shadow=0;fillColor=#e3c800;fontColor=#000000;strokeColor=#B09500;" vertex="1" parent="WIyWlLk6GJQsqaUBKTNV-1">
          <mxGeometry x="105" y="375.5" width="20" height="14.5" as="geometry" />
        </mxCell>
        <mxCell id="JzAl5olY9o-_MMsrC14U-7" value="1" style="rounded=1;whiteSpace=wrap;html=1;fontSize=12;glass=0;strokeWidth=1;shadow=0;fillColor=#e3c800;fontColor=#000000;strokeColor=#B09500;" vertex="1" parent="WIyWlLk6GJQsqaUBKTNV-1">
          <mxGeometry x="50" y="278" width="20" height="14.5" as="geometry" />
        </mxCell>
        <mxCell id="JzAl5olY9o-_MMsrC14U-8" value="&lt;font color=&quot;#ffffff&quot;&gt;tiene&lt;/font&gt;" style="rhombus;whiteSpace=wrap;html=1;shadow=0;fontFamily=Helvetica;fontSize=12;align=center;strokeWidth=1;spacing=6;spacingTop=-4;fillColor=#fa6800;fontColor=#000000;strokeColor=#C73500;" vertex="1" parent="WIyWlLk6GJQsqaUBKTNV-1">
          <mxGeometry x="70" y="305.25" width="40" height="26" as="geometry" />
        </mxCell>
        <mxCell id="JzAl5olY9o-_MMsrC14U-11" value="" style="edgeStyle=none;curved=1;rounded=0;orthogonalLoop=1;jettySize=auto;html=1;entryX=0.5;entryY=1;entryDx=0;entryDy=0;fontSize=12;startSize=8;endSize=8;exitX=0.333;exitY=-0.05;exitDx=0;exitDy=0;exitPerimeter=0;" edge="1" parent="WIyWlLk6GJQsqaUBKTNV-1" source="WIyWlLk6GJQsqaUBKTNV-11" target="JzAl5olY9o-_MMsrC14U-4">
          <mxGeometry relative="1" as="geometry">
            <mxPoint x="150" y="570" as="sourcePoint" />
            <mxPoint x="135" y="460" as="targetPoint" />
          </mxGeometry>
        </mxCell>
        <mxCell id="JzAl5olY9o-_MMsrC14U-4" value="&lt;div style=&quot;text-align: justify;&quot;&gt;&lt;span style=&quot;background-color: initial;&quot;&gt;*&lt;/span&gt;&lt;/div&gt;" style="rounded=1;whiteSpace=wrap;html=1;fontSize=18;glass=0;strokeWidth=1;shadow=0;fillColor=#e3c800;fontColor=#000000;strokeColor=#B09500;arcSize=50;" vertex="1" parent="WIyWlLk6GJQsqaUBKTNV-1">
          <mxGeometry x="140" y="553.75" width="30" height="22" as="geometry" />
        </mxCell>
        <mxCell id="JzAl5olY9o-_MMsrC14U-13" style="edgeStyle=none;curved=1;rounded=0;orthogonalLoop=1;jettySize=auto;html=1;entryX=0.734;entryY=0.838;entryDx=0;entryDy=0;entryPerimeter=0;fontSize=12;startSize=8;endSize=8;" edge="1" parent="WIyWlLk6GJQsqaUBKTNV-1" source="JzAl5olY9o-_MMsrC14U-12" target="JzAl5olY9o-_MMsrC14U-8">
          <mxGeometry relative="1" as="geometry">
            <Array as="points">
              <mxPoint x="150" y="340" />
            </Array>
          </mxGeometry>
        </mxCell>
        <mxCell id="JzAl5olY9o-_MMsrC14U-12" value="1" style="rounded=1;whiteSpace=wrap;html=1;fontSize=15;glass=0;strokeWidth=1;shadow=0;fillColor=#e3c800;fontColor=#000000;strokeColor=#B09500;" vertex="1" parent="WIyWlLk6GJQsqaUBKTNV-1">
          <mxGeometry x="180" y="557.5" width="30" height="14.5" as="geometry" />
        </mxCell>
        <mxCell id="JzAl5olY9o-_MMsrC14U-16" value="*" style="rounded=1;whiteSpace=wrap;html=1;fontSize=18;glass=0;strokeWidth=1;shadow=0;fillColor=#e3c800;fontColor=#000000;strokeColor=#B09500;arcSize=50;" vertex="1" parent="WIyWlLk6GJQsqaUBKTNV-1">
          <mxGeometry x="200" y="89" width="20" height="14.5" as="geometry" />
        </mxCell>
        <mxCell id="JzAl5olY9o-_MMsrC14U-18" value="1" style="rounded=1;whiteSpace=wrap;html=1;fontSize=12;glass=0;strokeWidth=1;shadow=0;fillColor=#e3c800;fontColor=#000000;strokeColor=#B09500;" vertex="1" parent="WIyWlLk6GJQsqaUBKTNV-1">
          <mxGeometry x="297" y="256.75" width="15" height="14.5" as="geometry" />
        </mxCell>
        <mxCell id="JzAl5olY9o-_MMsrC14U-21" value="" style="edgeStyle=none;curved=1;rounded=0;orthogonalLoop=1;jettySize=auto;html=1;entryX=0;entryY=0.5;entryDx=0;entryDy=0;fontSize=12;startSize=8;endSize=8;" edge="1" parent="WIyWlLk6GJQsqaUBKTNV-1" source="sJ1ZpcTcMJj1yfrNuu4c-64" target="JzAl5olY9o-_MMsrC14U-20">
          <mxGeometry relative="1" as="geometry">
            <mxPoint x="444" y="278" as="targetPoint" />
            <mxPoint x="402" y="281" as="sourcePoint" />
          </mxGeometry>
        </mxCell>
        <mxCell id="JzAl5olY9o-_MMsrC14U-20" value="1" style="rounded=1;whiteSpace=wrap;html=1;fontSize=12;glass=0;strokeWidth=1;shadow=0;fillColor=#e3c800;fontColor=#000000;strokeColor=#B09500;arcSize=0;" vertex="1" parent="WIyWlLk6GJQsqaUBKTNV-1">
          <mxGeometry x="393" y="272.5" width="15" height="14.5" as="geometry" />
        </mxCell>
        <mxCell id="JzAl5olY9o-_MMsrC14U-22" value="*" style="rounded=1;whiteSpace=wrap;html=1;fontSize=23;glass=0;strokeWidth=1;shadow=0;fillColor=#e3c800;fontColor=#000000;strokeColor=#B09500;arcSize=50;" vertex="1" parent="WIyWlLk6GJQsqaUBKTNV-1">
          <mxGeometry x="707" y="188" width="33" height="22" as="geometry" />
        </mxCell>
        <mxCell id="JzAl5olY9o-_MMsrC14U-23" value="1" style="rounded=1;whiteSpace=wrap;html=1;fontSize=12;glass=0;strokeWidth=1;shadow=0;fillColor=#e3c800;fontColor=#000000;strokeColor=#B09500;arcSize=25;" vertex="1" parent="WIyWlLk6GJQsqaUBKTNV-1">
          <mxGeometry x="441" y="127.5" width="15" height="14.5" as="geometry" />
        </mxCell>
        <mxCell id="JzAl5olY9o-_MMsrC14U-25" value="*" style="rounded=1;whiteSpace=wrap;html=1;fontSize=23;glass=0;strokeWidth=1;shadow=0;fillColor=#e3c800;fontColor=#000000;strokeColor=#B09500;arcSize=50;" vertex="1" parent="WIyWlLk6GJQsqaUBKTNV-1">
          <mxGeometry x="422" y="620" width="33" height="22" as="geometry" />
        </mxCell>
        <mxCell id="JzAl5olY9o-_MMsrC14U-29" value="1" style="rounded=1;whiteSpace=wrap;html=1;fontSize=12;glass=0;strokeWidth=1;shadow=0;fillColor=#e3c800;fontColor=#000000;strokeColor=#B09500;arcSize=25;" vertex="1" parent="WIyWlLk6GJQsqaUBKTNV-1">
          <mxGeometry x="695" y="454" width="15" height="14.5" as="geometry" />
        </mxCell>
        <mxCell id="JzAl5olY9o-_MMsrC14U-30" value="1" style="rounded=1;whiteSpace=wrap;html=1;fontSize=12;glass=0;strokeWidth=1;shadow=0;fillColor=#e3c800;fontColor=#000000;strokeColor=#B09500;arcSize=25;" vertex="1" parent="WIyWlLk6GJQsqaUBKTNV-1">
          <mxGeometry x="847" y="672" width="15" height="14.5" as="geometry" />
        </mxCell>
        <mxCell id="JzAl5olY9o-_MMsrC14U-31" value="1" style="rounded=1;whiteSpace=wrap;html=1;fontSize=12;glass=0;strokeWidth=1;shadow=0;fillColor=#e3c800;fontColor=#000000;strokeColor=#B09500;arcSize=0;" vertex="1" parent="WIyWlLk6GJQsqaUBKTNV-1">
          <mxGeometry x="1032.5" y="612" width="15" height="14.5" as="geometry" />
        </mxCell>
        <mxCell id="JzAl5olY9o-_MMsrC14U-32" value="1" style="rounded=1;whiteSpace=wrap;html=1;fontSize=12;glass=0;strokeWidth=1;shadow=0;fillColor=#e3c800;fontColor=#000000;strokeColor=#B09500;arcSize=0;" vertex="1" parent="WIyWlLk6GJQsqaUBKTNV-1">
          <mxGeometry x="1093.5" y="96.75" width="15" height="14.5" as="geometry" />
        </mxCell>
        <mxCell id="JzAl5olY9o-_MMsrC14U-33" value="1" style="rounded=1;whiteSpace=wrap;html=1;fontSize=12;glass=0;strokeWidth=1;shadow=0;fillColor=#e3c800;fontColor=#000000;strokeColor=#B09500;arcSize=25;" vertex="1" parent="WIyWlLk6GJQsqaUBKTNV-1">
          <mxGeometry x="473.5" y="627.5" width="15" height="14.5" as="geometry" />
        </mxCell>
        <mxCell id="JzAl5olY9o-_MMsrC14U-35" value="" style="edgeStyle=none;curved=1;rounded=0;orthogonalLoop=1;jettySize=auto;html=1;entryX=0.837;entryY=-0.025;entryDx=0;entryDy=0;entryPerimeter=0;fontSize=12;startSize=8;endSize=8;" edge="1" parent="WIyWlLk6GJQsqaUBKTNV-1" source="sJ1ZpcTcMJj1yfrNuu4c-133" target="JzAl5olY9o-_MMsrC14U-34">
          <mxGeometry relative="1" as="geometry">
            <mxPoint x="1043" y="212" as="sourcePoint" />
            <mxPoint x="997" y="206" as="targetPoint" />
          </mxGeometry>
        </mxCell>
        <mxCell id="JzAl5olY9o-_MMsrC14U-34" value="1" style="rounded=1;whiteSpace=wrap;html=1;fontSize=12;glass=0;strokeWidth=1;shadow=0;fillColor=#e3c800;fontColor=#000000;strokeColor=#B09500;arcSize=0;" vertex="1" parent="WIyWlLk6GJQsqaUBKTNV-1">
          <mxGeometry x="996.5" y="197.75" width="15" height="14.5" as="geometry" />
        </mxCell>
        <mxCell id="JzAl5olY9o-_MMsrC14U-37" value="" style="edgeStyle=none;curved=1;rounded=0;orthogonalLoop=1;jettySize=auto;html=1;entryX=1;entryY=0.5;entryDx=0;entryDy=0;fontSize=12;startSize=8;endSize=8;" edge="1" parent="WIyWlLk6GJQsqaUBKTNV-1" source="sJ1ZpcTcMJj1yfrNuu4c-147" target="JzAl5olY9o-_MMsrC14U-36">
          <mxGeometry relative="1" as="geometry">
            <mxPoint x="1104" y="145" as="sourcePoint" />
            <mxPoint x="930" y="20" as="targetPoint" />
          </mxGeometry>
        </mxCell>
        <mxCell id="JzAl5olY9o-_MMsrC14U-36" value="*" style="rounded=1;whiteSpace=wrap;html=1;fontSize=23;glass=0;strokeWidth=1;shadow=0;fillColor=#e3c800;fontColor=#000000;strokeColor=#B09500;arcSize=50;" vertex="1" parent="WIyWlLk6GJQsqaUBKTNV-1">
          <mxGeometry x="924.5" y="11.5" width="33" height="22" as="geometry" />
        </mxCell>
      </root>
    </mxGraphModel>
  </diagram>
</mxfile>
